<svg width="1094" height="661" viewBox="0 0 1094 661" fill="none" xmlns="http://www.w3.org/2000/svg">
<g clip-path="url(#clip0_446_728)">
<path d="M195.552 320.523C195.986 320.661 196.444 320.712 196.899 320.672C197.354 320.633 197.796 320.504 198.201 320.293L215.754 311.171C216.571 310.746 217.185 310.013 217.462 309.135C217.739 308.257 217.656 307.305 217.231 306.489C216.807 305.672 216.075 305.057 215.198 304.778C214.32 304.5 213.368 304.582 212.55 305.005L198.08 312.525L195.086 306.765C194.876 306.359 194.588 305.999 194.239 305.705C193.89 305.411 193.486 305.189 193.051 305.051C192.615 304.913 192.157 304.863 191.702 304.902C191.247 304.941 190.805 305.07 190.4 305.281C189.994 305.491 189.635 305.779 189.341 306.129C189.048 306.479 188.826 306.883 188.688 307.318C188.551 307.754 188.501 308.212 188.54 308.667C188.58 309.121 188.709 309.564 188.92 309.969L193.516 318.812C193.726 319.217 194.014 319.577 194.363 319.871C194.712 320.164 195.116 320.386 195.552 320.523Z" fill="#F1D614" fill-opacity="0.15"/>
<path d="M183.535 298.225C184.322 289.851 181.968 281.483 176.929 274.749C171.89 268.014 164.527 263.394 156.271 261.786C148.015 260.178 139.457 261.698 132.259 266.05C125.061 270.402 119.739 277.275 117.327 285.332C116.902 286.75 106.943 316.884 103.67 326.806C103.572 327.103 103.558 327.421 103.63 327.726C103.701 328.03 103.855 328.309 104.075 328.532C104.295 328.755 104.572 328.913 104.875 328.989C105.179 329.064 105.497 329.055 105.796 328.961L128.818 321.698C133.606 325.468 139.322 327.877 145.364 328.672C151.405 329.467 157.55 328.619 163.15 326.216C168.75 323.814 173.599 319.946 177.186 315.02C180.774 310.094 182.967 304.292 183.535 298.225ZM147.145 310.371C146.435 310.742 145.607 310.817 144.842 310.579C144.108 310.334 143.499 309.812 143.145 309.124C142.791 308.437 142.72 307.638 142.947 306.898C143.178 306.164 143.69 305.55 144.372 305.193C145.054 304.835 145.85 304.762 146.586 304.99C146.955 305.091 147.3 305.266 147.601 305.503C147.902 305.739 148.153 306.034 148.338 306.369C148.524 306.704 148.64 307.073 148.681 307.454C148.722 307.835 148.686 308.22 148.576 308.586C148.467 308.964 148.285 309.316 148.039 309.622C147.793 309.928 147.489 310.183 147.145 310.371ZM155.133 295.571L154.019 296.063C153.448 296.233 152.917 296.517 152.46 296.898C152.002 297.279 151.626 297.749 151.355 298.28C150.997 299.194 150.627 300.15 150.286 301.229C150.265 301.388 150.186 301.533 150.065 301.638C150.038 301.653 149.928 301.709 149.582 301.577C149.36 301.484 149.132 301.412 148.904 301.34L147.721 300.966C147.036 300.75 146.33 300.526 145.66 300.337C145.349 300.239 145.292 300.13 145.384 299.839C145.984 297.723 146.759 295.343 148.058 293.905C149.045 292.935 150.272 292.243 151.613 291.902C152.667 291.603 153.668 291.142 154.579 290.534C155.166 290.189 155.64 289.68 155.942 289.07C156.245 288.46 156.362 287.776 156.281 287.1C156.095 286.34 155.71 285.643 155.165 285.082C154.62 284.521 153.936 284.115 153.182 283.906C152.184 283.582 151.105 283.603 150.121 283.967C149.136 284.331 148.302 285.016 147.755 285.911C147.331 286.53 147.255 286.552 146.985 286.467C146.84 286.421 146.681 286.348 146.438 286.248C145.329 285.715 144.212 285.202 143.096 284.69C142.694 284.517 142.678 284.352 142.818 284.054C144.829 279.279 150.416 278.215 154.898 279.632C157.37 280.351 159.502 281.932 160.908 284.088C161.473 284.99 161.84 286 161.987 287.054C162.134 288.107 162.057 289.18 161.761 290.201C160.841 293.038 157.84 294.372 155.133 295.571Z" fill="#F1D614" fill-opacity="0.15"/>
<path d="M234.001 322.212C236.096 315.932 236.304 309.175 234.6 302.778C232.896 296.381 229.355 290.623 224.413 286.217C219.472 281.811 213.348 278.95 206.797 277.988C200.247 277.025 193.559 278.004 187.559 280.802C188.357 282.871 188.973 285.006 189.4 287.182C194.233 284.703 199.694 283.721 205.088 284.36C210.481 284.998 215.562 287.229 219.683 290.768C223.803 294.306 226.776 298.992 228.222 304.227C229.668 309.462 229.522 315.009 227.802 320.161C227.407 321.337 221.889 339.589 217.811 353.069L206.758 338.641L203.319 338.833C198.107 339.118 192.922 337.905 188.378 335.336C183.834 332.767 180.121 328.95 177.679 324.337C176.803 325.155 175.92 325.927 174.975 326.678C174.18 327.316 173.35 327.922 172.512 328.478C175.636 333.9 180.204 338.348 185.705 341.328C191.207 344.308 197.428 345.704 203.675 345.36L218.361 364.542C218.551 364.79 218.805 364.98 219.096 365.092C219.386 365.204 219.703 365.233 220.009 365.176C220.315 365.119 220.6 364.979 220.831 364.77C221.063 364.561 221.232 364.292 221.32 363.994C224.344 353.993 233.535 323.617 234.001 322.212Z" fill="#F1D614" fill-opacity="0.15"/>
</g>
<path d="M0 15C0 6.71575 6.71573 0 15 0H1079C1087.28 0 1094 6.71573 1094 15V646C1094 654.284 1087.28 661 1079 661H15C6.71573 661 0 654.284 0 646V15Z" fill="#F1D614" fill-opacity="0.05"/>
<g clip-path="url(#clip1_446_728)">
<path d="M553.047 51.0171C554.775 50.2323 556.814 50.9974 557.599 52.7249C558.383 54.4525 557.618 56.4916 555.891 57.2764C554.163 58.0613 552.124 57.2962 551.339 55.5687C550.554 53.8411 551.32 51.802 553.047 51.0171ZM536.933 15.5478C543.847 12.4064 551.997 15.4645 555.139 22.3789C557.191 26.896 556.686 29.9571 554.226 35.1851C551.757 40.4272 551.623 42.3432 553.238 45.8964L549.065 47.7922C546.72 42.6303 547.204 39.3368 550.08 33.233C552.023 29.1056 552.325 27.2667 550.966 24.2747C548.871 19.6637 543.44 17.6258 538.828 19.7206C534.217 21.8155 532.18 27.247 534.274 31.858L535.222 33.9444L531.049 35.8403L530.102 33.7538C526.96 26.8394 530.018 18.6891 536.933 15.5478Z" fill="#FEE114" fill-opacity="0.2"/>
</g>
<g clip-path="url(#clip2_446_728)">
<path fill-rule="evenodd" clip-rule="evenodd" d="M506.773 636.592L471.388 627.628C470.641 627.439 470.169 626.647 470.359 625.9L474.433 609.816C476.747 600.683 485.718 594.948 494.854 596.529C497.382 596.925 499.923 597.752 502.451 598.392L505.866 595.528C503.159 592.459 501.937 588.114 503.028 583.806L504.512 577.947C504.399 577.429 504.329 576.984 504.244 576.595C497.738 575.008 498.649 568.759 503.064 563.154C504.146 561.777 505.473 560.402 506.914 559.055C504.625 555.541 503.084 552.217 502.518 549.384C501.482 549.61 499.712 550.323 498.968 549.401C498.638 549.012 498.54 548.437 498.713 547.992L499.988 544.892L498.344 541.969C497.787 541.033 498.581 539.828 499.601 539.903L502.963 540.144L505.227 537.722C505.934 536.862 507.313 537.211 507.582 538.319L508.335 541.382C513.221 541.397 518.83 544.591 523.591 548.242C528.412 546.101 532.928 544.923 536.622 544.819C536.867 544.576 537.27 544.433 537.629 544.463L540.934 544.689L543.213 542.21C543.963 541.422 545.284 541.756 545.568 542.806L546.391 546.071L549.405 547.446C550.396 547.88 550.463 549.303 549.584 549.875L546.748 551.663L546.392 554.996C546.245 556.059 544.95 556.587 544.09 555.88L543.388 555.274C542.116 557.642 540.067 560.179 537.357 562.671C541.663 569.08 543.612 575.382 540.412 578.605C539.316 579.795 537.142 580.895 532.992 579.904C532.038 581.497 530.826 583.146 529.369 584.794L528.016 590.136C526.924 594.444 523.781 597.682 519.939 599.093L521.637 603.252C524.107 603.878 526.908 604.404 529.319 605.259C537.962 608.305 543.078 617.547 540.779 626.623L536.705 642.707C536.516 643.454 535.724 643.926 534.977 643.737L506.773 636.592ZM503.75 573.475C503.488 570.169 503.898 567.583 504.724 565.53C502.299 568.828 501.081 572.187 503.75 573.475ZM526.1 550.161C529.626 553.133 533.007 556.679 535.74 560.367C538.147 558.104 539.994 555.882 541.006 553.815C539.453 554.155 537.741 554.883 536.939 553.946C536.609 553.557 536.511 552.982 536.742 552.552L537.959 549.437L536.901 547.579C533.955 547.628 530.172 548.564 526.1 550.161ZM509.032 557.208C512.376 554.387 516.681 551.627 520.813 549.556C517.701 547.361 514.688 545.742 512.032 544.886C511.685 545.532 509.439 546.675 508.719 547.103L508.364 550.437C508.274 551.514 506.922 552.027 506.119 551.335L505.875 551.09C506.502 552.96 507.616 555.076 509.032 557.208ZM540.006 547.388C541.107 549.317 541.093 549.13 540.267 551.183C542.597 550.673 542.324 550.787 543.886 552.1C544.137 549.902 544.094 550.074 545.923 548.887C543.942 548.018 544.042 548.105 543.532 546.019C542.032 547.595 542.219 547.582 540.006 547.388ZM535.311 564.476C533.927 565.593 532.415 566.738 530.859 567.811C533.361 567.589 534.997 568.37 535.203 571.417C535.311 573.401 535.004 575.34 534.193 577.335C541.719 578.753 539.802 571.36 535.311 564.476ZM527.936 569.699L525.445 571.085C527.038 571.794 528.565 575.176 528.766 575.35C529.742 575.841 530.617 576.246 531.507 576.594C532.159 574.986 532.875 571.194 532.173 570.589C531.729 570.17 529.296 571.327 527.936 569.699ZM516.479 575.11C513.27 576.192 510.308 576.787 507.778 576.879C507.025 578.645 506.165 582.767 505.728 584.49C504.331 590.005 507.72 595.448 513.062 596.801C518.347 598.14 523.919 594.967 525.316 589.452L526.902 583.191C527.397 581.238 527.303 579.197 526.604 577.369C525.055 576.488 523.477 575.477 521.871 574.336C520.058 574.977 518.289 575.446 516.479 575.11ZM523.264 551.46C519.177 553.359 514.813 556.105 511.355 558.897C519.357 555.544 530.553 560.092 531.23 564.176C532.065 563.532 532.916 562.83 533.694 562.171C531.046 558.628 526.977 554.418 523.264 551.46ZM509.627 573.924C510.691 573.827 511.856 573.572 513.107 573.217L512.076 571.977C511.17 572.42 510.29 573.237 509.627 573.924ZM516.416 572.221C517.02 572.007 517.567 571.779 518.186 571.508C515.219 568.984 512.196 565.956 509.834 562.974C507.182 565.236 506.093 568.811 506.524 573.383C507.564 571.935 508.847 570.731 510.373 569.773C512.749 568.358 513.951 569.885 514.595 570.721C515.068 571.268 515.469 571.859 516.416 572.221ZM521.007 570.266C521.698 569.952 527.168 567.181 527.6 566.68C527.76 566.292 527.89 566.019 528.077 565.761C528.656 564.685 528.771 564.47 527.639 563.633C523.035 560.327 516.628 559.56 512.167 561.486C514.686 564.57 517.91 567.77 521.007 570.266ZM530.278 579.033C530.106 578.99 529.991 578.961 529.833 578.86C529.89 579.119 529.889 579.363 529.888 579.607C530.061 579.406 530.162 579.249 530.278 579.033ZM505.915 547.555L506.15 545.903L506.194 545.73L506.31 545.515L506.324 545.458C506.757 544.956 507.433 544.699 507.952 544.342C506.028 543.488 506.085 543.747 505.503 541.46C503.989 543.093 504.19 543.022 501.978 542.828C503.078 544.758 503.064 544.571 502.239 546.623C504.367 546.184 504.152 546.069 505.915 547.555ZM547.979 571.414C547.175 571.21 546.733 570.304 547.051 569.528L548.311 566.486L546.667 563.563C546.11 562.627 546.847 561.408 547.924 561.497L551.286 561.738L553.565 559.258C554.257 558.456 555.636 558.805 555.92 559.855L556.686 563.106L559.757 564.495C560.748 564.929 560.815 566.352 559.879 566.91L557.042 568.697L556.701 571.973C556.54 573.094 555.245 573.621 554.442 572.929L551.876 570.751C551.042 570.906 548.726 571.603 547.979 571.414ZM550.301 564.422C551.401 566.351 551.388 566.165 550.562 568.217C552.748 567.793 552.576 567.749 554.238 569.148C554.489 566.95 554.388 567.108 556.275 565.936C554.251 564.995 554.394 565.154 553.826 563.053C552.327 564.63 552.528 564.558 550.301 564.422ZM487.004 565.259C486.2 565.056 485.742 564.206 486.061 563.431L487.278 560.316L485.62 557.451C485.134 556.472 485.856 555.31 486.949 555.342L490.253 555.568L492.517 553.147C493.267 552.358 494.646 552.708 494.873 553.743L495.71 556.951L498.724 558.326C499.7 558.817 499.839 560.197 498.889 560.812L496.067 562.543L495.711 565.876C495.564 566.939 494.269 567.467 493.409 566.76L490.886 564.653C490.052 564.809 487.693 565.434 487.004 565.259ZM491.614 561.781C492.246 561.941 492.746 562.618 493.263 562.994C493.514 560.796 493.413 560.953 495.227 559.824C493.261 558.898 493.347 559.042 492.851 556.899C491.336 558.532 491.538 558.461 489.311 558.325C490.426 560.197 490.412 560.01 489.586 562.062C490.162 561.964 490.982 561.621 491.614 561.781ZM499.07 631.768L504.304 617.139C502.81 616.76 503.015 615.712 503.306 614.563C502.471 614.963 500.614 616.021 499.724 615.673C499.394 615.528 499.15 615.283 498.993 614.938L492.202 599.035C485.275 598.87 478.908 603.492 477.133 610.5L473.393 625.263L480.918 627.169L484.599 612.636C485.036 610.913 487.736 611.597 487.299 613.32L483.618 627.853L499.07 631.768ZM530.286 608.683L516.743 619.434C515.288 620.594 514.188 618.42 513.129 617.051C512.838 618.2 512.518 619.22 511.025 618.841L508.663 634.198L524.115 638.112L527.796 623.579C528.233 621.856 530.933 622.54 530.496 624.263L526.815 638.796L534.34 640.702L538.079 625.939C539.855 618.931 536.456 611.835 530.286 608.683ZM495.635 599.477C495.52 599.448 495.463 599.434 495.405 599.419L500.998 612.573L507.517 609.762L501.896 601.063L495.635 599.477ZM501.77 632.451L505.963 633.514L508.382 618.172L507.004 617.823L501.77 632.451ZM527.286 607.495L520.795 605.851L511.711 610.824L516.106 616.4L527.286 607.495ZM506.529 613.179L506.137 614.73L510.56 615.851L510.953 614.3L509.192 612.081L506.529 613.179ZM510.079 608.577L518.876 603.775L517.207 599.746C514.044 600.167 510.54 599.28 507.958 597.403L504.63 600.167L510.079 608.577Z" fill="#FEE114" fill-opacity="0.2"/>
<path fill-rule="evenodd" clip-rule="evenodd" d="M529.834 578.86C529.891 579.118 529.89 579.363 529.889 579.607C530.062 579.406 530.163 579.249 530.279 579.033L529.834 578.86Z" fill="#999999"/>
</g>
<g clip-path="url(#clip3_446_728)">
<path d="M378.306 166.537C377.774 166.81 377.182 166.943 376.584 166.924L359.43 166.455C359.163 166.448 358.898 166.508 358.66 166.63C358.423 166.752 358.22 166.933 358.071 167.155L348.482 181.383C348.1 181.956 347.559 182.405 346.925 182.673C346.291 182.941 345.592 183.017 344.915 182.891C344.218 182.764 343.569 182.448 343.038 181.978C342.507 181.508 342.115 180.902 341.904 180.226L336.446 163.345C336.362 163.082 336.217 162.842 336.024 162.645C335.83 162.448 335.593 162.299 335.331 162.211L318.839 156.753C318.165 156.527 317.566 156.122 317.104 155.582C316.642 155.042 316.335 154.386 316.217 153.685C316.085 153 316.15 152.291 316.405 151.641C316.66 150.991 317.093 150.426 317.656 150.013L331.437 140.046C331.655 139.885 331.83 139.673 331.946 139.428C332.063 139.184 332.118 138.914 332.107 138.644L331.509 121.043C331.471 120.349 331.635 119.659 331.98 119.057C332.326 118.454 332.839 117.964 333.457 117.646C334.074 117.328 334.771 117.196 335.462 117.265C336.154 117.334 336.81 117.602 337.353 118.036L351.328 128.759C351.541 128.925 351.792 129.037 352.059 129.084C352.326 129.131 352.6 129.112 352.858 129.029L368.977 123.607C369.641 123.389 370.352 123.365 371.029 123.535C371.706 123.706 372.321 124.065 372.802 124.571C373.303 125.075 373.658 125.705 373.83 126.395C374.001 127.085 373.982 127.808 373.774 128.488L368.627 145.078C368.547 145.343 368.529 145.622 368.577 145.894C368.625 146.167 368.736 146.424 368.901 146.645L379.466 160.899C379.893 161.464 380.158 162.136 380.232 162.841C380.306 163.546 380.186 164.257 379.884 164.899C379.552 165.603 378.997 166.179 378.306 166.537ZM357.692 164.749C358.223 164.476 358.814 164.343 359.411 164.361L376.566 164.829C376.875 164.842 377.18 164.762 377.443 164.6C377.706 164.438 377.915 164.202 378.043 163.921C378.181 163.634 378.236 163.315 378.203 162.998C378.17 162.682 378.05 162.381 377.856 162.129L367.293 147.876C366.923 147.382 366.675 146.808 366.568 146.2C366.462 145.592 366.5 144.968 366.68 144.378L371.824 127.785C371.92 127.481 371.93 127.156 371.853 126.847C371.776 126.537 371.615 126.255 371.388 126.03C371.174 125.801 370.899 125.639 370.595 125.562C370.292 125.485 369.972 125.497 369.675 125.597L353.558 131.025C352.983 131.213 352.37 131.256 351.775 131.15C351.179 131.045 350.619 130.794 350.143 130.421L336.169 119.698C335.926 119.503 335.631 119.382 335.321 119.351C335.011 119.319 334.698 119.378 334.421 119.521C334.144 119.664 333.914 119.884 333.759 120.154C333.604 120.425 333.532 120.735 333.549 121.046L334.15 138.65C334.177 139.254 334.055 139.855 333.795 140.401C333.535 140.947 333.144 141.42 332.657 141.779L318.871 151.74C318.617 151.924 318.422 152.177 318.307 152.469C318.193 152.76 318.166 153.079 318.228 153.386C318.278 153.701 318.415 153.996 318.622 154.238C318.829 154.481 319.099 154.662 319.402 154.761L335.894 160.221C336.479 160.418 337.009 160.75 337.441 161.19C337.874 161.631 338.196 162.166 338.383 162.755L343.837 179.632C343.93 179.937 344.105 180.209 344.343 180.42C344.582 180.631 344.874 180.771 345.187 180.826C345.49 180.885 345.804 180.852 346.089 180.732C346.374 180.612 346.616 180.41 346.786 180.152L356.382 165.919C356.713 165.425 357.164 165.022 357.692 164.749Z" fill="#FEE114" fill-opacity="0.2"/>
<path d="M336.077 151.153C335.87 151.26 335.633 151.291 335.405 151.242C335.178 151.192 334.975 151.065 334.832 150.882C334.688 150.699 334.613 150.472 334.619 150.239C334.625 150.006 334.711 149.783 334.864 149.608L341.926 141.476C342.012 141.377 342.117 141.296 342.235 141.237C342.352 141.178 342.48 141.144 342.611 141.134C342.742 141.125 342.874 141.142 342.999 141.184C343.123 141.225 343.238 141.291 343.337 141.377C343.437 141.464 343.518 141.568 343.576 141.686C343.635 141.804 343.67 141.931 343.679 142.063C343.688 142.194 343.671 142.325 343.63 142.45C343.588 142.574 343.522 142.689 343.436 142.789L336.374 150.921C336.291 151.017 336.19 151.096 336.077 151.153Z" fill="#FEE114" fill-opacity="0.2"/>
<path d="M359.197 139.258C359.084 139.317 358.961 139.353 358.834 139.365L348.112 140.383C347.848 140.408 347.585 140.327 347.38 140.159C347.176 139.99 347.047 139.746 347.021 139.482C346.996 139.218 347.077 138.955 347.246 138.75C347.415 138.546 347.658 138.417 347.922 138.391L358.644 137.373C358.876 137.351 359.108 137.41 359.3 137.54C359.493 137.67 359.634 137.864 359.7 138.087C359.765 138.31 359.751 138.549 359.659 138.763C359.567 138.977 359.404 139.152 359.197 139.258Z" fill="#FEE114" fill-opacity="0.2"/>
<path d="M350.675 157.138C350.53 157.212 350.37 157.249 350.208 157.248C350.045 157.246 349.886 157.205 349.743 157.128L346.753 155.517L346.323 158.887C346.295 159.044 346.231 159.193 346.137 159.321C346.042 159.449 345.919 159.554 345.777 159.627C345.635 159.699 345.479 159.739 345.319 159.741C345.16 159.744 345.002 159.71 344.858 159.641L340.583 157.342C340.357 157.213 340.19 157 340.118 156.749C340.047 156.499 340.076 156.23 340.199 156C340.323 155.771 340.531 155.598 340.78 155.52C341.029 155.442 341.298 155.464 341.531 155.582L344.524 157.191L344.954 153.82C344.975 153.659 345.035 153.505 345.128 153.372C345.222 153.239 345.346 153.131 345.491 153.057C345.635 152.983 345.795 152.945 345.958 152.947C346.12 152.949 346.28 152.99 346.422 153.067L349.413 154.677L349.842 151.307C349.87 151.151 349.934 151.002 350.029 150.874C350.124 150.746 350.247 150.641 350.389 150.568C350.53 150.495 350.687 150.456 350.846 150.453C351.006 150.451 351.164 150.485 351.308 150.553L354.3 152.163L354.732 148.792C354.752 148.631 354.811 148.477 354.904 148.345C354.997 148.212 355.12 148.103 355.264 148.029C355.408 147.955 355.568 147.917 355.73 147.918C355.892 147.92 356.051 147.961 356.194 148.037L359.193 149.643L359.629 146.27C359.641 146.136 359.681 146.006 359.744 145.888C359.808 145.77 359.895 145.666 360 145.582C360.105 145.499 360.225 145.437 360.355 145.4C360.484 145.364 360.619 145.354 360.752 145.372C360.885 145.389 361.014 145.432 361.129 145.5C361.245 145.568 361.346 145.658 361.426 145.766C361.507 145.874 361.564 145.996 361.596 146.127C361.628 146.257 361.633 146.393 361.611 146.525L360.992 151.342C360.964 151.498 360.9 151.646 360.805 151.774C360.71 151.902 360.588 152.006 360.446 152.079C360.305 152.152 360.148 152.191 359.989 152.194C359.83 152.197 359.673 152.163 359.529 152.095L356.531 150.489L356.098 153.86C356.078 154.021 356.019 154.175 355.925 154.308C355.832 154.44 355.708 154.549 355.564 154.623C355.42 154.697 355.26 154.735 355.097 154.734C354.935 154.732 354.776 154.691 354.633 154.614L351.64 153.005L351.209 156.376C351.189 156.536 351.129 156.69 351.036 156.823C350.943 156.955 350.819 157.063 350.675 157.138Z" fill="#FEE114" fill-opacity="0.2"/>
</g>
<g clip-path="url(#clip4_446_728)">
<path fill-rule="evenodd" clip-rule="evenodd" d="M496.507 323.484L461.31 333.158C460.567 333.362 459.766 332.906 459.562 332.163L455.165 316.164C452.668 307.079 457.639 297.663 466.364 294.527C468.758 293.623 471.377 293.088 473.891 292.397L475.447 288.221C471.578 286.888 468.37 283.713 467.192 279.428L465.59 273.6C465.236 273.205 464.955 272.853 464.689 272.557C458.248 274.388 455.955 268.505 457.028 261.45C457.289 259.719 457.764 257.868 458.353 255.985C454.628 254.059 451.646 251.929 449.755 249.744C448.966 250.453 447.779 251.947 446.676 251.512C446.198 251.336 445.828 250.885 445.759 250.412L445.337 247.087L442.465 245.357C441.518 244.818 441.614 243.378 442.538 242.94L445.581 241.489L446.354 238.265C446.544 237.168 447.916 236.791 448.697 237.621L450.863 239.914C455.12 237.515 461.575 237.523 467.517 238.349C470.653 234.107 473.999 230.852 477.16 228.938C477.253 228.606 477.533 228.283 477.86 228.131L480.846 226.696L481.604 223.415C481.867 222.36 483.181 221.999 483.946 222.772L486.274 225.205L489.574 224.912C490.649 224.801 491.411 226.005 490.929 226.936L489.344 229.892L490.681 232.966C491.078 233.963 490.212 235.061 489.115 234.871L488.205 234.691C488.268 237.378 487.739 240.596 486.613 244.101C493.521 247.549 498.327 252.066 497.135 256.45C496.769 258.025 495.422 260.055 491.324 261.242C491.28 263.098 491.04 265.13 490.587 267.283L492.047 272.597C493.225 276.882 492.09 281.25 489.446 284.374L492.975 287.152C495.432 286.477 498.128 285.552 500.647 285.105C509.666 283.487 518.679 288.999 521.16 298.027L525.557 314.026C525.761 314.768 525.305 315.57 524.562 315.774L496.507 323.484ZM462.72 270.087C460.859 267.341 459.94 264.89 459.644 262.697C459.164 266.762 459.763 270.285 462.72 270.087ZM470.647 238.779C475.18 239.622 479.871 241.037 484.069 242.895C485.045 239.738 485.554 236.894 485.414 234.598C484.231 235.66 483.101 237.138 481.941 236.72C481.463 236.544 481.093 236.092 481.082 235.604L480.602 232.294L478.766 231.201C476.227 232.698 473.4 235.38 470.647 238.779ZM459.283 253.333C460.798 249.229 463.18 244.703 465.75 240.862C461.96 240.49 458.541 240.57 455.808 241.136C455.825 241.869 454.436 243.972 454.022 244.7L455.359 247.774C455.813 248.755 454.89 249.869 453.85 249.664L453.517 249.571C454.985 250.888 456.999 252.178 459.283 253.333ZM481.371 229.502C483.281 230.636 483.177 230.481 483.472 232.673C485.246 231.079 485.065 231.314 487.072 231.684C486.205 229.648 486.252 229.82 487.256 227.884C485.105 228.107 485.235 228.133 483.761 226.571C483.235 228.682 483.391 228.578 481.371 229.502ZM485.724 246.68C485.072 248.334 484.322 250.077 483.499 251.778C485.565 250.35 487.373 250.222 489.057 252.77C490.131 254.442 490.82 256.28 491.1 258.416C498.345 255.933 493.028 250.45 485.724 246.68ZM481.889 254.863L480.407 257.298C482.142 257.129 485.14 259.316 485.4 259.367C486.492 259.313 487.453 259.233 488.399 259.096C488.172 257.377 486.922 253.725 486.013 253.545C485.42 253.401 483.875 255.608 481.889 254.863ZM474.596 265.225C472.341 267.75 470.058 269.729 467.903 271.059C468.12 272.966 469.407 276.976 469.878 278.69C471.385 284.175 477.02 287.236 482.334 285.775C487.59 284.33 490.869 278.82 489.362 273.335L487.65 267.107C487.116 265.164 486.027 263.436 484.517 262.191C482.734 262.189 480.863 262.089 478.904 261.89C477.643 263.343 476.336 264.624 474.596 265.225ZM468.822 241.308C466.205 244.978 463.766 249.519 462.137 253.654C467.44 246.789 479.422 245.217 482.027 248.434C482.435 247.461 482.828 246.431 483.18 245.474C479.128 243.7 473.512 242.048 468.822 241.308ZM468.053 267.577C468.93 266.967 469.817 266.17 470.73 265.243L469.221 264.674C468.651 265.507 468.29 266.651 468.053 267.577ZM473.116 262.744C473.536 262.259 473.898 261.791 474.303 261.25C470.476 260.519 466.353 259.379 462.826 257.951C461.637 261.228 462.455 264.875 465.087 268.637C465.276 266.865 465.797 265.185 466.652 263.598C468.019 261.194 469.819 261.929 470.792 262.338C471.473 262.581 472.113 262.896 473.116 262.744ZM476.143 258.777C476.589 258.163 479.978 253.053 480.106 252.403C480.054 251.987 480.032 251.686 480.068 251.369C480.04 250.148 480.034 249.903 478.636 249.735C473.001 249.132 467.049 251.628 464.121 255.506C467.834 256.943 472.218 258.135 476.143 258.777ZM488.534 261.825C488.362 261.872 488.248 261.903 488.061 261.893C488.238 262.09 488.358 262.303 488.478 262.516C488.529 262.256 488.54 262.069 488.534 261.825ZM451.806 246.477L451.195 244.924L451.148 244.752L451.143 244.508L451.127 244.451C451.255 243.801 451.717 243.244 451.991 242.677C449.897 242.884 450.074 243.081 448.439 241.379C447.929 243.548 448.069 243.386 446.049 244.31C447.958 245.445 447.854 245.289 448.15 247.482C449.784 246.049 449.54 246.055 451.806 246.477ZM500.166 246.46C499.366 246.68 498.534 246.11 498.428 245.278L498.022 242.01L495.149 240.28C494.202 239.741 494.241 238.317 495.223 237.863L498.265 236.412L499.023 233.131C499.229 232.091 500.6 231.715 501.365 232.487L503.636 234.936L506.993 234.628C508.069 234.517 508.83 235.721 508.291 236.668L506.707 239.623L508.027 242.64C508.44 243.694 507.574 244.793 506.534 244.587L503.228 243.959C502.579 244.506 500.909 246.256 500.166 246.46ZM498.733 239.233C500.643 240.368 500.539 240.212 500.834 242.405C502.525 240.957 502.354 241.004 504.491 241.4C503.624 239.364 503.614 239.551 504.676 237.6C502.452 237.781 502.654 237.848 501.123 236.303C500.597 238.414 500.737 238.252 498.733 239.233ZM444.101 271.209C443.301 271.429 442.484 270.916 442.378 270.085L441.899 266.775L439.042 265.102C438.137 264.491 438.191 263.124 439.157 262.613L442.142 261.178L442.916 257.954C443.179 256.898 444.55 256.521 445.258 257.31L447.571 259.686L450.87 259.393C451.962 259.339 452.764 260.471 452.241 261.475L450.641 264.373L451.977 267.447C452.374 268.444 451.509 269.542 450.412 269.352L447.178 268.766C446.529 269.313 444.786 271.021 444.101 271.209ZM446.393 265.909C447.021 265.736 447.791 266.078 448.425 266.149C447.558 264.114 447.548 264.301 448.569 262.423C446.402 262.588 446.547 262.671 445.058 261.052C444.548 263.22 444.688 263.059 442.683 264.04C444.577 265.117 444.473 264.962 444.768 267.154C445.22 266.784 445.764 266.082 446.393 265.909ZM487.427 323.091L484.757 307.786C483.271 308.194 482.932 307.181 482.618 306.038C482.089 306.798 480.996 308.635 480.05 308.772C479.692 308.809 479.359 308.716 479.052 308.493L465.295 298.017C459.19 301.292 455.935 308.455 457.851 315.426L461.886 330.111L469.371 328.054L465.399 313.598C464.927 311.884 467.613 311.145 468.084 312.86L472.057 327.316L487.427 323.091ZM503.178 287.605L496.708 303.641C496.015 305.368 493.985 304.02 492.388 303.353C492.702 304.496 492.928 305.54 491.442 305.948L496.969 320.469L512.34 316.245L508.367 301.789C507.895 300.075 510.581 299.336 511.052 301.051L515.025 315.507L522.51 313.45L518.474 298.765C516.559 291.794 510.1 287.301 503.178 287.605ZM468.499 296.706C468.385 296.737 468.328 296.753 468.271 296.769L479.628 305.447L483.91 299.784L474.727 294.994L468.499 296.706ZM490.113 322.353L494.284 321.207L488.814 306.671L487.443 307.048L490.113 322.353ZM499.983 288.053L493.526 289.828L488.081 298.637L494.655 301.317L499.983 288.053ZM484.738 303.243L485.162 304.786L489.561 303.577L489.137 302.034L486.511 300.974L484.738 303.243ZM485.553 297.489L490.832 288.97L487.392 286.29C484.849 288.218 481.363 289.176 478.192 288.818L476.662 292.865L485.553 297.489Z" fill="#FEE114" fill-opacity="0.2"/>
<path fill-rule="evenodd" clip-rule="evenodd" d="M488.061 261.893C488.238 262.09 488.358 262.303 488.478 262.516C488.529 262.256 488.539 262.069 488.533 261.825L488.061 261.893Z" fill="#999999"/>
</g>
<g clip-path="url(#clip5_446_728)">
<path d="M786.746 110.81C787.196 110.736 787.628 110.574 788.015 110.332C788.402 110.091 788.738 109.776 789.003 109.404L800.511 93.3137C801.046 92.5642 801.261 91.6331 801.109 90.725C800.958 89.8169 800.452 89.006 799.704 88.4704C798.955 87.9348 798.024 87.7183 797.116 87.8685C796.208 88.0186 795.396 88.5231 794.859 89.2711L785.373 102.536L780.092 98.759C779.721 98.4931 779.301 98.3028 778.857 98.1992C778.412 98.0956 777.951 98.0806 777.501 98.1552C777.05 98.2297 776.619 98.3923 776.231 98.6337C775.844 98.875 775.508 99.1904 775.242 99.5618C774.976 99.9331 774.787 100.353 774.683 100.798C774.58 101.243 774.566 101.703 774.641 102.154C774.716 102.604 774.879 103.035 775.121 103.423C775.362 103.81 775.678 104.146 776.05 104.411L784.156 110.209C784.527 110.475 784.946 110.665 785.391 110.768C785.835 110.871 786.296 110.886 786.746 110.81Z" fill="#F1D614" fill-opacity="0.15"/>
<path d="M765.924 96.3861C762.829 88.5655 756.936 82.1753 749.391 78.4581C741.845 74.7408 733.188 73.962 725.1 76.2732C717.013 78.5844 710.074 83.8203 705.633 90.963C701.191 98.1057 699.565 106.645 701.069 114.92C701.333 116.377 706.123 147.75 707.705 158.077C707.753 158.386 707.885 158.676 708.087 158.915C708.288 159.154 708.552 159.333 708.849 159.432C709.146 159.531 709.464 159.546 709.769 159.476C710.074 159.406 710.354 159.253 710.577 159.034L727.803 142.12C733.779 143.309 739.966 142.864 745.711 140.833C751.457 138.801 756.548 135.259 760.45 130.578C764.351 125.897 766.919 120.251 767.883 114.234C768.846 108.217 768.169 102.051 765.924 96.3861ZM738.999 123.714C738.535 124.366 737.831 124.809 737.041 124.944C736.276 125.058 735.497 124.869 734.869 124.417C734.242 123.964 733.816 123.285 733.683 122.523C733.556 121.763 733.734 120.984 734.18 120.356C734.626 119.728 735.302 119.302 736.061 119.171C736.436 119.094 736.823 119.093 737.198 119.168C737.574 119.242 737.931 119.391 738.248 119.606C738.565 119.82 738.837 120.096 739.046 120.417C739.255 120.738 739.398 121.097 739.466 121.474C739.54 121.86 739.537 122.256 739.457 122.641C739.377 123.025 739.221 123.39 738.999 123.714ZM739.407 106.9L738.637 107.844C738.206 108.255 737.862 108.749 737.626 109.296C737.391 109.843 737.269 110.432 737.268 111.028C737.364 112.005 737.467 113.025 737.653 114.141C737.706 114.293 737.702 114.458 737.642 114.607C737.624 114.632 737.552 114.732 737.184 114.771C736.944 114.789 736.708 114.828 736.472 114.867L735.248 115.07C734.539 115.188 733.809 115.309 733.126 115.445C732.804 115.498 732.703 115.426 732.653 115.126C732.229 112.968 731.841 110.495 732.346 108.624C732.786 107.312 733.566 106.139 734.606 105.226C735.41 104.482 736.093 103.617 736.629 102.662C736.996 102.089 737.188 101.421 737.181 100.74C737.173 100.059 736.968 99.3953 736.589 98.8298C736.079 98.2369 735.419 97.7908 734.679 97.5376C733.939 97.2843 733.145 97.2329 732.378 97.3888C731.341 97.5527 730.39 98.061 729.678 98.8317C728.965 99.6024 728.533 100.591 728.45 101.637C728.353 102.381 728.296 102.435 728.017 102.481C727.867 102.506 727.691 102.513 727.43 102.535C726.199 102.562 724.972 102.612 723.744 102.661C723.308 102.69 723.218 102.55 723.208 102.221C722.835 97.0534 727.332 93.5711 731.97 92.8011C734.499 92.3211 737.116 92.7634 739.347 94.0476C740.259 94.5951 741.045 95.329 741.654 96.2012C742.262 97.0734 742.68 98.0644 742.879 99.1091C743.346 102.054 741.276 104.604 739.407 106.9Z" fill="#F1D614" fill-opacity="0.15"/>
<path d="M821.782 94.8786C820.801 88.3313 817.923 82.2151 813.503 77.2862C809.083 72.3574 803.315 68.832 796.913 67.146C790.511 65.46 783.755 65.6874 777.481 67.8C771.207 69.9126 765.689 73.8178 761.611 79.0327C763.26 80.5149 764.777 82.1382 766.145 83.884C769.328 79.4835 773.75 76.1311 778.847 74.2543C783.943 72.3776 789.484 72.0616 794.761 73.3468C800.038 74.632 804.812 77.4601 808.475 81.4702C812.138 85.4803 814.523 90.4907 815.326 95.8621C815.508 97.0894 818.867 115.859 821.346 129.723L804.952 121.876L801.973 123.606C797.458 126.224 792.286 127.494 787.071 127.265C781.857 127.036 776.816 125.318 772.547 122.314C772.139 123.441 771.702 124.529 771.2 125.627C770.781 126.557 770.315 127.473 769.821 128.349C775.064 131.763 781.152 133.656 787.407 133.818C793.662 133.979 799.839 132.402 805.251 129.262L827.039 139.698C827.32 139.833 827.633 139.888 827.943 139.855C828.253 139.823 828.548 139.706 828.795 139.516C829.043 139.327 829.232 139.072 829.344 138.781C829.456 138.49 829.484 138.174 829.427 137.868C827.587 127.583 822.003 96.3423 821.782 94.8786Z" fill="#F1D614" fill-opacity="0.15"/>
</g>
<g clip-path="url(#clip6_446_728)">
<path d="M790.748 451.986C791.189 452.101 791.649 452.127 792.101 452.064C792.553 452 792.988 451.848 793.381 451.616L810.428 441.579C811.221 441.111 811.795 440.347 812.025 439.456C812.255 438.564 812.122 437.618 811.655 436.825C811.188 436.031 810.425 435.456 809.534 435.224C808.643 434.993 807.697 435.125 806.903 435.591L792.85 443.865L789.556 438.271C789.325 437.877 789.018 437.533 788.654 437.258C788.289 436.983 787.874 436.782 787.432 436.668C786.99 436.553 786.53 436.527 786.078 436.59C785.626 436.653 785.191 436.805 784.797 437.037C784.404 437.269 784.06 437.575 783.785 437.94C783.51 438.305 783.31 438.72 783.196 439.162C783.082 439.604 783.056 440.064 783.12 440.516C783.184 440.969 783.336 441.404 783.568 441.797L788.624 450.385C788.855 450.778 789.162 451.122 789.526 451.397C789.891 451.672 790.306 451.872 790.748 451.986Z" fill="#F1D614" fill-opacity="0.15"/>
<path d="M777.57 430.354C777.914 421.95 775.12 413.719 769.732 407.26C764.345 400.801 756.748 396.576 748.418 395.407C740.089 394.238 731.622 396.209 724.665 400.935C717.707 405.661 712.756 412.806 710.773 420.98C710.423 422.418 702.072 453.036 699.328 463.117C699.246 463.419 699.249 463.738 699.337 464.038C699.424 464.339 699.593 464.609 699.824 464.82C700.055 465.031 700.34 465.174 700.647 465.233C700.954 465.293 701.272 465.267 701.565 465.158L724.171 456.687C729.152 460.198 734.987 462.302 741.062 462.777C747.137 463.251 753.228 462.079 758.693 459.384C764.159 456.689 768.796 452.57 772.118 447.461C775.44 442.353 777.324 436.443 777.57 430.354ZM741.873 444.407C741.184 444.815 740.361 444.934 739.585 444.736C738.839 444.531 738.203 444.042 737.813 443.374C737.423 442.706 737.31 441.912 737.497 441.161C737.689 440.415 738.169 439.776 738.831 439.383C739.493 438.989 740.284 438.874 741.031 439.063C741.405 439.145 741.759 439.301 742.072 439.521C742.385 439.742 742.65 440.023 742.853 440.348C743.056 440.672 743.192 441.035 743.253 441.413C743.314 441.791 743.299 442.177 743.208 442.549C743.119 442.932 742.956 443.293 742.726 443.612C742.497 443.93 742.207 444.201 741.873 444.407ZM749.068 429.205L747.981 429.756C747.42 429.956 746.905 430.267 746.468 430.672C746.031 431.077 745.681 431.566 745.438 432.11C745.129 433.042 744.81 434.016 744.526 435.112C744.514 435.271 744.443 435.421 744.327 435.532C744.301 435.548 744.195 435.61 743.842 435.497C743.616 435.416 743.384 435.355 743.152 435.296L741.951 434.985C741.256 434.805 740.539 434.619 739.86 434.466C739.544 434.384 739.481 434.278 739.557 433.983C740.045 431.838 740.693 429.421 741.915 427.916C742.849 426.895 744.037 426.139 745.359 425.727C746.396 425.373 747.371 424.86 748.248 424.204C748.816 423.829 749.263 423.296 749.532 422.671C749.802 422.046 749.883 421.356 749.766 420.685C749.54 419.936 749.119 419.261 748.545 418.729C747.972 418.197 747.266 417.828 746.503 417.66C745.488 417.389 744.413 417.467 743.449 417.883C742.485 418.298 741.689 419.026 741.189 419.949C740.798 420.59 740.724 420.616 740.45 420.545C740.303 420.507 740.139 420.442 739.892 420.355C738.756 419.881 737.614 419.428 736.472 418.976C736.062 418.824 736.037 418.66 736.16 418.355C737.917 413.481 743.439 412.123 747.99 413.301C750.497 413.888 752.71 415.354 754.228 417.433C754.839 418.304 755.26 419.293 755.462 420.338C755.664 421.382 755.644 422.457 755.402 423.493C754.634 426.374 751.708 427.865 749.068 429.205Z" fill="#F1D614" fill-opacity="0.15"/>
<path d="M829.233 451.639C830.993 445.257 830.844 438.499 828.804 432.201C826.764 425.903 822.923 420.34 817.756 416.202C812.588 412.063 806.321 409.53 799.729 408.915C793.138 408.3 786.51 409.631 780.666 412.743C781.573 414.767 782.301 416.866 782.842 419.016C787.537 416.286 792.939 415.016 798.359 415.368C803.779 415.721 808.97 417.68 813.272 420.996C817.574 424.312 820.79 428.834 822.511 433.985C824.232 439.136 824.379 444.684 822.934 449.919C822.602 451.114 818.057 469.633 814.697 483.309L802.896 469.486L799.473 469.859C794.283 470.42 789.041 469.482 784.368 467.157C779.694 464.832 775.785 461.216 773.102 456.739C772.271 457.603 771.43 458.42 770.526 459.22C769.765 459.899 768.968 460.548 768.161 461.148C771.568 466.396 776.364 470.597 782.016 473.282C787.667 475.967 793.953 477.032 800.174 476.358L815.853 494.737C816.055 494.974 816.319 495.151 816.615 495.247C816.912 495.344 817.229 495.356 817.532 495.283C817.835 495.21 818.112 495.055 818.332 494.834C818.552 494.613 818.706 494.336 818.778 494.033C821.27 483.886 828.841 453.067 829.233 451.639Z" fill="#F1D614" fill-opacity="0.15"/>
</g>
<g clip-path="url(#clip7_446_728)">
<path d="M983.771 604.549C983.258 604.242 982.831 603.81 982.531 603.294L973.837 588.499C973.702 588.268 973.51 588.075 973.281 587.938C973.051 587.802 972.79 587.725 972.523 587.716L955.375 587.126C954.687 587.106 954.02 586.884 953.457 586.488C952.893 586.093 952.458 585.541 952.206 584.9C951.945 584.241 951.869 583.523 951.986 582.824C952.103 582.125 952.409 581.472 952.871 580.934L964.293 567.359C964.472 567.149 964.599 566.899 964.663 566.63C964.728 566.362 964.728 566.082 964.664 565.813L960.552 548.935C960.387 548.244 960.412 547.521 960.626 546.843C960.839 546.165 961.233 545.557 961.764 545.085C962.276 544.61 962.911 544.289 963.598 544.161C964.284 544.033 964.992 544.101 965.641 544.359L981.397 550.763C981.649 550.863 981.921 550.899 982.191 550.868C982.46 550.838 982.717 550.742 982.941 550.589L997.549 540.754C998.118 540.354 998.79 540.127 999.484 540.101C1000.18 540.074 1000.87 540.25 1001.46 540.605C1002.06 540.96 1002.54 541.481 1002.85 542.104C1003.16 542.727 1003.28 543.426 1003.2 544.116L1001.51 561.649C1001.48 561.919 1001.52 562.191 1001.62 562.442C1001.72 562.693 1001.88 562.916 1002.09 563.09L1015.23 573.886C1015.77 574.333 1016.17 574.924 1016.38 575.588C1016.6 576.253 1016.62 576.964 1016.44 577.64C1016.28 578.333 1015.93 578.968 1015.44 579.479C1014.95 579.989 1014.32 580.357 1013.64 580.541L996.839 584.968C996.572 585.04 996.326 585.174 996.12 585.359C995.915 585.543 995.755 585.774 995.655 586.031L989.167 602.545C988.914 603.207 988.485 603.787 987.927 604.223C987.368 604.659 986.701 604.935 985.997 605.019C985.224 605.11 984.442 604.945 983.771 604.549ZM974.362 586.121C974.875 586.426 975.302 586.857 975.603 587.372L984.297 602.168C984.45 602.436 984.68 602.653 984.956 602.79C985.233 602.928 985.544 602.979 985.85 602.939C986.166 602.904 986.467 602.782 986.717 602.586C986.968 602.391 987.16 602.129 987.271 601.831L993.759 585.32C993.982 584.745 994.337 584.23 994.796 583.817C995.255 583.405 995.805 583.106 996.401 582.945L1013.2 578.515C1013.51 578.435 1013.79 578.271 1014.01 578.041C1014.23 577.812 1014.39 577.526 1014.46 577.215C1014.54 576.912 1014.53 576.593 1014.43 576.294C1014.34 575.996 1014.16 575.732 1013.91 575.533L1000.77 564.742C1000.31 564.354 999.945 563.857 999.719 563.296C999.492 562.735 999.408 562.127 999.473 561.526L1001.16 543.993C1001.2 543.683 1001.14 543.369 1001.01 543.09C1000.87 542.81 1000.65 542.576 1000.38 542.417C1000.12 542.257 999.807 542.179 999.496 542.191C999.184 542.203 998.883 542.305 998.628 542.485L984.018 552.324C983.521 552.668 982.946 552.883 982.345 552.952C981.744 553.02 981.136 552.94 980.573 552.717L964.82 546.305C964.53 546.187 964.212 546.155 963.904 546.213C963.596 546.271 963.311 546.417 963.084 546.632C962.843 546.842 962.665 547.114 962.57 547.418C962.474 547.722 962.463 548.047 962.54 548.357L966.65 565.235C966.793 565.836 966.792 566.461 966.648 567.061C966.504 567.661 966.22 568.219 965.821 568.689L954.399 582.259C954.19 582.499 954.051 582.792 953.999 583.106C953.946 583.419 953.982 583.742 954.102 584.036C954.212 584.325 954.406 584.574 954.659 584.751C954.912 584.929 955.212 585.028 955.521 585.035L972.676 585.63C973.271 585.648 973.851 585.817 974.362 586.121Z" fill="#FEE114" fill-opacity="0.2"/>
<path d="M974.437 560.585C974.237 560.466 974.085 560.281 974.006 560.062C973.928 559.843 973.928 559.604 974.007 559.385C974.086 559.167 974.239 558.982 974.44 558.864C974.64 558.746 974.875 558.701 975.105 558.738L985.744 560.417C985.873 560.437 985.998 560.483 986.11 560.552C986.222 560.62 986.319 560.71 986.396 560.817C986.474 560.923 986.529 561.043 986.56 561.171C986.59 561.299 986.596 561.432 986.575 561.561C986.555 561.691 986.509 561.815 986.44 561.927C986.371 562.039 986.281 562.137 986.175 562.214C986.069 562.291 985.948 562.347 985.821 562.377C985.693 562.408 985.56 562.413 985.431 562.393L974.792 560.714C974.666 560.694 974.546 560.65 974.437 560.585Z" fill="#FEE114" fill-opacity="0.2"/>
<path d="M996.777 573.886C996.667 573.822 996.571 573.737 996.494 573.635L989.948 565.083C989.787 564.872 989.716 564.606 989.751 564.343C989.785 564.08 989.923 563.842 990.134 563.68C990.344 563.519 990.611 563.448 990.874 563.483C991.137 563.517 991.375 563.655 991.536 563.866L998.082 572.419C998.224 572.603 998.297 572.831 998.288 573.064C998.28 573.296 998.191 573.518 998.036 573.692C997.882 573.866 997.671 573.98 997.441 574.016C997.211 574.051 996.976 574.005 996.777 573.886Z" fill="#FEE114" fill-opacity="0.2"/>
<path d="M977.099 576.136C976.96 576.053 976.843 575.937 976.758 575.798C976.674 575.66 976.624 575.503 976.614 575.341L976.395 571.952L973.309 573.373C973.161 573.433 973.002 573.457 972.843 573.445C972.684 573.432 972.53 573.383 972.393 573.302C972.256 573.22 972.139 573.108 972.053 572.974C971.966 572.84 971.911 572.688 971.893 572.53L971.577 567.687C971.567 567.426 971.659 567.172 971.834 566.978C972.008 566.785 972.252 566.667 972.512 566.65C972.772 566.633 973.029 566.718 973.227 566.888C973.425 567.057 973.549 567.298 973.573 567.557L973.794 570.948L976.881 569.527C977.028 569.459 977.19 569.428 977.352 569.437C977.515 569.446 977.672 569.494 977.812 569.577C977.951 569.661 978.068 569.776 978.153 569.915C978.237 570.054 978.287 570.211 978.297 570.373L978.516 573.762L981.602 572.34C981.75 572.281 981.91 572.257 982.069 572.269C982.227 572.281 982.381 572.33 982.518 572.412C982.655 572.493 982.772 572.605 982.858 572.739C982.945 572.873 983 573.025 983.018 573.183L983.24 576.574L986.327 575.153C986.474 575.085 986.635 575.054 986.797 575.062C986.959 575.07 987.116 575.118 987.256 575.2C987.395 575.283 987.512 575.399 987.596 575.537C987.681 575.675 987.731 575.832 987.741 575.993L987.969 579.388L991.061 577.97C991.181 577.909 991.311 577.874 991.445 577.865C991.579 577.857 991.714 577.875 991.84 577.92C991.967 577.964 992.083 578.034 992.182 578.124C992.282 578.215 992.362 578.324 992.418 578.446C992.474 578.568 992.505 578.7 992.508 578.834C992.512 578.968 992.489 579.102 992.44 579.227C992.392 579.352 992.318 579.466 992.224 579.562C992.131 579.658 992.019 579.734 991.895 579.786L987.482 581.814C987.334 581.873 987.175 581.897 987.016 581.884C986.858 581.872 986.704 581.823 986.567 581.741C986.431 581.66 986.315 581.548 986.228 581.415C986.141 581.281 986.087 581.13 986.068 580.972L985.841 577.578L982.753 578.998C982.605 579.066 982.444 579.097 982.282 579.089C982.12 579.08 981.962 579.033 981.823 578.95C981.683 578.867 981.566 578.751 981.482 578.612C981.397 578.474 981.347 578.317 981.337 578.155L981.115 574.764L978.029 576.186C977.881 576.253 977.72 576.284 977.558 576.276C977.396 576.267 977.239 576.219 977.099 576.136Z" fill="#FEE114" fill-opacity="0.2"/>
</g>
<g clip-path="url(#clip8_446_728)">
<path d="M155.337 539.882C157.048 539.063 159.102 539.787 159.922 541.498C160.741 543.21 160.016 545.264 158.305 546.083C156.593 546.902 154.539 546.178 153.72 544.466C152.901 542.755 153.625 540.701 155.337 539.882ZM138.518 504.741C145.368 501.462 153.578 504.357 156.857 511.207C158.999 515.683 158.555 518.753 156.2 524.029C153.836 529.32 153.74 531.238 155.425 534.758L151.291 536.737C148.843 531.623 149.262 528.32 152.015 522.16C153.876 517.995 154.141 516.15 152.722 513.186C150.536 508.618 145.065 506.689 140.497 508.875C135.928 511.062 133.999 516.533 136.186 521.101L137.175 523.168L133.041 525.147L132.051 523.08C128.773 516.229 131.667 508.02 138.518 504.741Z" fill="#FEE114" fill-opacity="0.2"/>
</g>
<g clip-path="url(#clip9_446_728)">
<path d="M955.829 235.28C956.965 236.8 956.653 238.956 955.133 240.092C953.613 241.227 951.458 240.916 950.322 239.396C949.186 237.876 949.497 235.72 951.017 234.584C952.537 233.449 954.693 233.76 955.829 235.28ZM987.036 211.959C991.582 218.043 990.336 226.658 984.252 231.204C980.278 234.174 977.18 234.335 971.547 233.049C965.898 231.758 963.998 232.036 960.872 234.372L958.128 230.701C962.67 227.307 965.991 227.077 972.568 228.581C977.015 229.598 978.876 229.5 981.509 227.533C985.566 224.501 986.396 218.76 983.364 214.703C980.333 210.646 974.591 209.816 970.534 212.847L968.698 214.219L965.955 210.548L967.79 209.176C973.874 204.63 982.489 205.876 987.036 211.959Z" fill="#FEE114" fill-opacity="0.2"/>
</g>
<defs>
<clipPath id="clip0_446_728">
<rect width="128" height="128" fill="white" transform="translate(132.266 228.687) rotate(17.5413)"/>
</clipPath>
<clipPath id="clip1_446_728">
<rect width="55" height="55" fill="white" transform="translate(510 22.7498) rotate(-24.4332)"/>
</clipPath>
<clipPath id="clip2_446_728">
<rect width="101.152" height="101.152" fill="white" transform="translate(479.914 525.441) rotate(14.2151)"/>
</clipPath>
<clipPath id="clip3_446_728">
<rect width="64" height="64" fill="white" transform="translate(305 132.281) rotate(-27.2268)"/>
</clipPath>
<clipPath id="clip4_446_728">
<rect width="101.152" height="101.152" fill="white" transform="translate(418.277 240.082) rotate(-15.3673)"/>
</clipPath>
<clipPath id="clip5_446_728">
<rect width="128" height="128" fill="white" transform="translate(688.695 57.6599) rotate(-9.42679)"/>
</clipPath>
<clipPath id="clip6_446_728">
<rect width="128" height="128" fill="white" transform="translate(722.695 363.624) rotate(14.5106)"/>
</clipPath>
<clipPath id="clip7_446_728">
<rect width="64" height="64" fill="white" transform="translate(973.971 524.229) rotate(30.7695)"/>
</clipPath>
<clipPath id="clip8_446_728">
<rect width="55" height="55" fill="white" transform="translate(111.734 512.479) rotate(-25.5766)"/>
</clipPath>
<clipPath id="clip9_446_728">
<rect width="55" height="55" fill="white" transform="translate(974.244 187.187) rotate(53.229)"/>
</clipPath>
</defs>
</svg>
