<svg width="1094" height="661" viewBox="0 0 1094 661" fill="none" xmlns="http://www.w3.org/2000/svg">
<path d="M0 14.9995C0 6.71526 6.71573 -0.000488281 15 -0.000488281H1079C1087.28 -0.000488281 1094 6.71524 1094 14.9995V646C1094 654.284 1087.28 661 1079 661H15C6.71573 661 0 654.284 0 646V14.9995Z" fill="#FF5656" fill-opacity="0.05"/>
<g clip-path="url(#clip0_446_856)">
<path d="M128.596 158.893C107.534 165.817 96.0752 188.5 103 209.563C109.925 230.626 132.608 242.084 153.671 235.16C174.733 228.235 186.192 205.552 179.267 184.489C172.342 163.426 149.659 151.968 128.596 158.893ZM116.747 199.465C116.385 198.362 116.31 197.231 116.493 196.181L111.631 196.657L111.183 192.282L132.137 190.146L132.585 194.522L129.738 194.797C129.777 194.917 129.846 195.026 129.885 195.145C131.08 198.78 129.12 202.659 125.486 203.854C121.821 205.059 117.942 203.099 116.747 199.465ZM155.007 221.152C146.666 223.895 139.469 223.092 135.179 222.092L133.625 226.3L129.495 224.786L133.166 214.864C133.166 214.864 143.651 218.944 156.068 214.036L158.613 219.769C157.401 220.299 156.169 220.77 155.007 221.152ZM162.209 184.518C163.404 188.153 161.415 192.042 157.81 193.227C154.175 194.422 150.296 192.462 149.101 188.828C149.062 188.709 149.023 188.589 149.013 188.46L146.558 189.928L144.322 186.14L162.455 175.425L164.691 179.213L160.485 181.685C161.236 182.461 161.847 183.416 162.209 184.518Z" fill="#FF5656" fill-opacity="0.1"/>
</g>
<g clip-path="url(#clip1_446_856)">
<path d="M406.669 261.943C396.25 260.329 385.365 263.594 377.333 270.354C370.929 275.747 367.472 282.826 364.906 290.595L358.576 309.76C358.311 310.61 358.387 311.53 358.787 312.325C359.187 313.12 359.879 313.729 360.72 314.024L366.952 316.082L364.925 322.219C364.66 323.069 364.736 323.989 365.137 324.785C365.537 325.581 366.231 326.19 367.072 326.484L411.998 341.321C412.848 341.586 413.768 341.51 414.564 341.11C415.36 340.709 415.969 340.015 416.263 339.174L418.305 332.989L424.855 335.152C425.706 335.417 426.626 335.341 427.422 334.94C428.217 334.54 428.826 333.846 429.12 333.005L436.607 310.336C443.492 288.522 429.36 265.46 406.669 261.943ZM375.89 282.075C386.648 265.6 410.942 263.702 424.032 278.477C431.257 286.622 433.448 297.894 430.194 308.22L423.767 327.681L417.217 325.518C416.367 325.253 415.446 325.329 414.651 325.729C413.855 326.13 413.246 326.824 412.952 327.665L410.909 333.85L372.396 321.13L374.423 314.994C374.688 314.143 374.613 313.223 374.212 312.427C373.812 311.631 373.118 311.021 372.276 310.727L366.044 308.669L369.563 298.013C371.34 292.632 372.763 286.871 375.89 282.075Z" fill="#FF5656" fill-opacity="0.1"/>
<path d="M387.664 305.574C389.62 309.46 395.653 306.426 393.691 302.54L388.322 291.877C386.366 287.99 380.334 291.025 382.295 294.911L387.664 305.574Z" fill="#FF5656" fill-opacity="0.1"/>
<path d="M408.228 312.366L418.898 307C422.784 305.043 419.749 299.012 415.864 300.973L405.201 306.341C401.305 308.291 404.339 314.324 408.228 312.366Z" fill="#FF5656" fill-opacity="0.1"/>
</g>
<g clip-path="url(#clip2_446_856)">
<path d="M387.019 103.749L370.618 100.226C366.793 99.4047 362.959 102.072 362.122 105.766L360.376 110.751C360.165 111.337 360.469 111.984 361.055 112.195C361.104 112.212 361.153 112.226 361.202 112.237C361.746 112.354 362.324 111.969 362.518 111.431L364.233 106.632C364.25 106.584 364.301 106.367 364.311 106.317C364.853 103.797 367.509 101.867 370.144 102.433L386.545 105.955C387.154 106.086 387.754 105.698 387.885 105.089C388.016 104.48 387.628 103.879 387.019 103.749Z" fill="#FF5656" fill-opacity="0.1"/>
<path d="M360.724 113.82C360.138 113.625 359.494 113.948 359.299 114.539L358.527 116.885C358.332 117.477 358.654 118.115 359.246 118.311C359.285 118.324 359.324 118.334 359.364 118.343C359.92 118.462 360.489 118.145 360.671 117.592L361.443 115.246C361.638 114.653 361.316 114.015 360.724 113.82Z" fill="#FF5656" fill-opacity="0.1"/>
<path d="M415.421 104.077L406.429 102.146C404.502 101.732 401.839 102.208 399.684 103.874C398.351 100.325 395.611 97.5137 391.642 96.6613L369.647 91.9375C362.839 90.4754 356.023 95.1523 354.422 101.917L347.925 121.581C347.873 121.736 347.893 121.605 347.859 121.764C346.374 128.681 350.838 135.224 357.734 136.706L365.482 138.37L361.384 149.982C360.946 151.208 361.016 152.755 361.649 153.891C362.282 155.028 363.353 155.933 364.625 156.207C364.924 156.271 367.65 156.868 371.794 156.403C374.6 156.09 378.745 152.731 385.41 146.654C389.757 142.688 392.586 139.287 394.232 136.541C395.551 137.629 397.194 138.256 398.609 138.56L407.874 140.549C412.445 141.531 415.322 139.058 416.306 134.476L420.558 114.679C421.541 110.097 419.992 105.059 415.421 104.077ZM406.111 106.695L410.525 107.643L409.055 114.484C408.863 115.381 407.689 115.922 406.493 115.665C405.297 115.408 404.449 114.433 404.642 113.536L406.111 106.695ZM391.518 131.646C390.553 136.137 374.162 151.43 370.629 151.826C367.096 152.221 365.307 151.434 365.307 151.434L371.467 135.038L358.682 132.292C354.212 131.332 351.287 127.301 352.252 122.809L358.818 102.936C359.783 98.4462 364.23 95.3912 368.699 96.3512L390.034 100.933L389.887 101.256C394.357 102.216 396.81 107.005 395.846 111.494L392.03 129.263L391.518 131.646ZM411.891 133.527C411.429 135.678 410.964 136.595 408.821 136.134L399.557 134.145C397.417 133.685 395.981 132.361 396.444 130.209L400.259 112.442L400.695 110.413C401.034 108.834 402.304 107.259 403.799 106.71L402.435 113.062C401.978 115.191 403.585 117.349 406.019 117.872C408.453 118.395 410.805 117.087 411.262 114.958L412.732 108.117L413.835 108.354L413.666 108.672C415.808 109.132 416.605 111.58 416.143 113.731L411.891 133.527Z" fill="#FF5656" fill-opacity="0.1"/>
<path d="M406.751 114.467C407.36 114.597 407.961 114.209 408.092 113.6L408.566 111.393C408.696 110.784 408.308 110.184 407.699 110.053C407.09 109.922 406.49 110.31 406.359 110.919L405.885 113.126C405.754 113.735 406.142 114.336 406.751 114.467Z" fill="#FF5656" fill-opacity="0.1"/>
</g>
<defs>
<clipPath id="clip0_446_856">
<rect width="81.5375" height="81.5375" fill="white" transform="translate(89.6719 171.03) rotate(-18.1992)"/>
</clipPath>
<clipPath id="clip1_446_856">
<rect width="97.7199" height="97.7199" fill="white" transform="translate(370.26 237) rotate(18.2769)"/>
</clipPath>
<clipPath id="clip2_446_856">
<rect width="79" height="79" fill="white" transform="translate(352.176 80.5864) rotate(12.1213)"/>
</clipPath>
</defs>
</svg>
