<svg width="1094" height="661" viewBox="0 0 1094 661" fill="none" xmlns="http://www.w3.org/2000/svg">
<path d="M0 15C0 6.71575 6.71573 0 15 0H1079C1087.28 0 1094 6.71573 1094 15V646C1094 654.284 1087.28 661 1079 661H15C6.71573 661 0 654.284 0 646V15Z" fill="#FF5656" fill-opacity="0.05"/>
<g clip-path="url(#clip0_446_906)">
<path d="M130.596 155.893C109.534 162.817 98.0752 185.5 105 206.563C111.925 227.626 134.608 239.084 155.671 232.16C176.733 225.235 188.192 202.552 181.267 181.489C174.342 160.426 151.659 148.968 130.596 155.893ZM118.747 196.465C118.385 195.362 118.31 194.231 118.493 193.181L113.631 193.657L113.183 189.282L134.137 187.146L134.585 191.522L131.738 191.798C131.777 191.917 131.846 192.026 131.885 192.145C133.08 195.78 131.12 199.659 127.486 200.854C123.821 202.059 119.942 200.099 118.747 196.465ZM157.007 218.152C148.666 220.895 141.469 220.092 137.179 219.092L135.625 223.301L131.495 221.786L135.166 211.864C135.166 211.864 145.651 215.944 158.068 211.036L160.613 216.769C159.401 217.299 158.169 217.77 157.007 218.152ZM164.209 181.518C165.404 185.153 163.415 189.042 159.81 190.227C156.175 191.422 152.296 189.462 151.101 185.828C151.062 185.709 151.023 185.589 151.013 185.46L148.558 186.928L146.322 183.14L164.455 172.425L166.691 176.213L162.485 178.685C163.236 179.461 163.847 180.416 164.209 181.518Z" fill="#FF5656" fill-opacity="0.1"/>
</g>
<g clip-path="url(#clip1_446_906)">
<path d="M408.669 258.943C398.25 257.329 387.365 260.594 379.333 267.355C372.929 272.747 369.472 279.826 366.906 287.595L360.576 306.76C360.311 307.61 360.387 308.53 360.787 309.325C361.187 310.12 361.879 310.729 362.72 311.024L368.952 313.082L366.925 319.219C366.66 320.069 366.736 320.99 367.137 321.785C367.537 322.581 368.231 323.19 369.072 323.484L413.998 338.321C414.848 338.586 415.768 338.51 416.564 338.11C417.36 337.709 417.969 337.015 418.263 336.174L420.305 329.989L426.855 332.152C427.706 332.417 428.626 332.341 429.422 331.94C430.217 331.54 430.826 330.846 431.12 330.005L438.607 307.336C445.492 285.522 431.36 262.46 408.669 258.943ZM377.89 279.075C388.648 262.6 412.942 260.702 426.032 275.478C433.257 283.622 435.448 294.894 432.194 305.22L425.767 324.681L419.217 322.518C418.367 322.253 417.446 322.329 416.651 322.729C415.855 323.13 415.246 323.824 414.952 324.665L412.909 330.85L374.396 318.131L376.423 311.994C376.688 311.143 376.613 310.223 376.212 309.427C375.812 308.631 375.118 308.021 374.276 307.727L368.044 305.669L371.563 295.013C373.34 289.632 374.763 283.871 377.89 279.075Z" fill="#FF5656" fill-opacity="0.1"/>
<path d="M389.664 302.574C391.62 306.46 397.653 303.426 395.691 299.54L390.322 288.876C388.366 284.99 382.334 288.025 384.295 291.911L389.664 302.574Z" fill="#FF5656" fill-opacity="0.1"/>
<path d="M410.228 309.366L420.898 304C424.784 302.043 421.749 296.012 417.864 297.973L407.201 303.341C403.305 305.291 406.339 311.324 410.228 309.366Z" fill="#FF5656" fill-opacity="0.1"/>
</g>
<g clip-path="url(#clip2_446_906)">
<path d="M389.019 100.749L372.618 97.2262C368.793 96.4048 364.959 99.0721 364.122 102.766L362.376 107.751C362.165 108.337 362.469 108.984 363.055 109.195C363.104 109.212 363.153 109.226 363.202 109.237C363.746 109.354 364.324 108.969 364.518 108.431L366.233 103.632C366.25 103.585 366.301 103.367 366.311 103.317C366.853 100.797 369.509 98.8671 372.144 99.433L388.545 102.956C389.154 103.086 389.754 102.698 389.885 102.089C390.016 101.48 389.628 100.88 389.019 100.749Z" fill="#FF5656" fill-opacity="0.1"/>
<path d="M362.724 110.821C362.138 110.626 361.494 110.948 361.299 111.54L360.527 113.886C360.332 114.477 360.654 115.116 361.246 115.311C361.285 115.324 361.324 115.335 361.364 115.343C361.92 115.463 362.489 115.145 362.671 114.592L363.443 112.246C363.638 111.653 363.316 111.015 362.724 110.821Z" fill="#FF5656" fill-opacity="0.1"/>
<path d="M417.421 101.077L408.429 99.1458C406.502 98.7321 403.839 99.2081 401.684 100.874C400.351 97.3255 397.611 94.5138 393.642 93.6613L371.647 88.9376C364.839 87.4754 358.023 92.1524 356.422 98.9168L349.925 118.581C349.873 118.736 349.893 118.605 349.859 118.764C348.374 125.681 352.838 132.224 359.734 133.706L367.482 135.37L363.384 146.982C362.946 148.208 363.016 149.755 363.649 150.891C364.282 152.028 365.353 152.933 366.625 153.207C366.924 153.271 369.65 153.868 373.794 153.403C376.6 153.09 380.745 149.731 387.41 143.654C391.757 139.689 394.586 136.287 396.232 133.541C397.551 134.629 399.194 135.256 400.609 135.56L409.874 137.549C414.445 138.531 417.322 136.058 418.306 131.476L422.558 111.679C423.541 107.097 421.992 102.059 417.421 101.077ZM408.111 103.695L412.525 104.643L411.055 111.484C410.863 112.381 409.689 112.922 408.493 112.665C407.297 112.408 406.449 111.433 406.642 110.536L408.111 103.695ZM393.518 128.646C392.553 133.137 376.162 148.43 372.629 148.826C369.096 149.222 367.307 148.435 367.307 148.435L373.467 132.038L360.682 129.292C356.212 128.332 353.287 124.301 354.252 119.809L360.818 99.936C361.783 95.4462 366.23 92.3912 370.699 93.3512L392.034 97.9333L391.887 98.2561C396.357 99.2161 398.81 104.005 397.846 108.494L394.03 126.263L393.518 128.646ZM413.891 130.527C413.429 132.678 412.964 133.595 410.821 133.134L401.557 131.145C399.417 130.685 397.981 129.361 398.444 127.209L402.259 109.442L402.695 107.413C403.034 105.834 404.304 104.259 405.799 103.71L404.435 110.062C403.978 112.192 405.585 114.349 408.019 114.872C410.453 115.395 412.805 114.087 413.262 111.958L414.732 105.117L415.835 105.354L415.666 105.672C417.808 106.132 418.605 108.58 418.143 110.731L413.891 130.527Z" fill="#FF5656" fill-opacity="0.1"/>
<path d="M408.751 111.467C409.36 111.598 409.961 111.209 410.092 110.6L410.566 108.393C410.696 107.784 410.308 107.184 409.699 107.053C409.09 106.922 408.49 107.31 408.359 107.92L407.885 110.126C407.754 110.735 408.142 111.336 408.751 111.467Z" fill="#FF5656" fill-opacity="0.1"/>
</g>
<g clip-path="url(#clip3_446_906)">
<path d="M623.433 513.162L607.032 509.64C603.207 508.818 599.373 511.486 598.536 515.18L596.79 520.164C596.579 520.75 596.883 521.397 597.469 521.609C597.518 521.626 597.567 521.64 597.616 521.651C598.16 521.767 598.738 521.382 598.932 520.845L600.647 516.045C600.664 515.998 600.715 515.78 600.725 515.731C601.267 513.21 603.923 511.281 606.558 511.847L622.959 515.369C623.568 515.5 624.168 515.112 624.299 514.503C624.43 513.894 624.042 513.293 623.433 513.162Z" fill="#FF5656" fill-opacity="0.1"/>
<path d="M597.138 523.234C596.552 523.039 595.908 523.361 595.713 523.953L594.941 526.299C594.746 526.891 595.068 527.529 595.66 527.724C595.699 527.737 595.738 527.748 595.778 527.757C596.334 527.876 596.903 527.559 597.085 527.006L597.857 524.659C598.052 524.067 597.73 523.428 597.138 523.234Z" fill="#FF5656" fill-opacity="0.1"/>
<path d="M651.835 513.491L642.843 511.559C640.916 511.146 638.253 511.622 636.098 513.287C634.765 509.739 632.025 506.927 628.056 506.075L606.061 501.351C599.253 499.889 592.437 504.566 590.836 511.33L584.339 530.994C584.287 531.149 584.307 531.019 584.273 531.177C582.788 538.095 587.252 544.638 594.148 546.119L601.897 547.783L597.798 559.396C597.36 560.621 597.43 562.168 598.063 563.305C598.696 564.442 599.767 565.347 601.039 565.62C601.338 565.684 604.065 566.281 608.208 565.816C611.014 565.504 615.159 562.145 621.824 556.067C626.171 552.102 629 548.701 630.646 545.955C631.965 547.043 633.608 547.669 635.024 547.973L644.288 549.963C648.859 550.945 651.736 548.471 652.72 543.89L656.972 524.093C657.955 519.511 656.406 514.472 651.835 513.491ZM642.525 516.108L646.939 517.056L645.47 523.897C645.277 524.795 644.103 525.335 642.907 525.079C641.711 524.822 640.863 523.847 641.056 522.95L642.525 516.108ZM627.932 541.06C626.967 545.55 610.576 560.844 607.043 561.24C603.51 561.635 601.721 560.848 601.721 560.848L607.882 544.451L595.096 541.706C590.626 540.746 587.701 536.714 588.666 532.222L595.232 512.35C596.197 507.86 600.644 504.805 605.114 505.765L626.448 510.347L626.301 510.67C630.771 511.63 633.224 516.418 632.26 520.908L628.444 538.676L627.932 541.06ZM648.305 542.941C647.844 545.091 647.378 546.008 645.235 545.548L635.971 543.558C633.831 543.099 632.396 541.775 632.858 539.623L636.674 521.856L637.109 519.827C637.448 518.248 638.718 516.672 640.213 516.123L638.849 522.476C638.392 524.605 639.999 526.763 642.433 527.285C644.867 527.808 647.219 526.501 647.676 524.371L649.146 517.53L650.249 517.767L650.08 518.085C652.222 518.545 653.019 520.994 652.557 523.144L648.305 542.941Z" fill="#FF5656" fill-opacity="0.1"/>
<path d="M643.165 523.88C643.774 524.011 644.375 523.623 644.506 523.014L644.98 520.807C645.11 520.198 644.722 519.597 644.113 519.467C643.504 519.336 642.904 519.724 642.773 520.333L642.299 522.54C642.168 523.149 642.556 523.749 643.165 523.88Z" fill="#FF5656" fill-opacity="0.1"/>
</g>
<g clip-path="url(#clip4_446_906)">
<path d="M152.433 366.162L136.032 362.64C132.207 361.818 128.373 364.486 127.536 368.18L125.79 373.164C125.579 373.75 125.883 374.397 126.469 374.609C126.518 374.626 126.567 374.64 126.616 374.651C127.16 374.767 127.738 374.382 127.932 373.845L129.647 369.045C129.664 368.998 129.715 368.78 129.725 368.731C130.267 366.21 132.923 364.281 135.558 364.847L151.959 368.369C152.568 368.5 153.168 368.112 153.299 367.503C153.43 366.894 153.042 366.293 152.433 366.162Z" fill="#FF5656" fill-opacity="0.1"/>
<path d="M126.138 376.234C125.552 376.039 124.908 376.361 124.713 376.953L123.941 379.299C123.746 379.891 124.068 380.529 124.66 380.724C124.699 380.737 124.738 380.748 124.778 380.757C125.334 380.876 125.903 380.559 126.085 380.006L126.857 377.659C127.052 377.067 126.73 376.428 126.138 376.234Z" fill="#FF5656" fill-opacity="0.1"/>
<path d="M180.835 366.491L171.843 364.559C169.916 364.146 167.253 364.622 165.098 366.287C163.765 362.739 161.025 359.927 157.056 359.075L135.061 354.351C128.253 352.889 121.437 357.566 119.836 364.33L113.339 383.994C113.287 384.149 113.307 384.019 113.273 384.177C111.788 391.095 116.252 397.638 123.148 399.119L130.897 400.783L126.798 412.396C126.36 413.621 126.43 415.168 127.063 416.305C127.696 417.442 128.767 418.347 130.039 418.62C130.338 418.684 133.065 419.281 137.208 418.816C140.014 418.504 144.159 415.145 150.824 409.067C155.171 405.102 158 401.701 159.646 398.955C160.965 400.043 162.608 400.669 164.024 400.973L173.288 402.963C177.859 403.945 180.736 401.471 181.72 396.89L185.972 377.093C186.955 372.511 185.406 367.472 180.835 366.491ZM171.525 369.108L175.939 370.056L174.47 376.897C174.277 377.795 173.103 378.335 171.907 378.079C170.711 377.822 169.863 376.847 170.056 375.95L171.525 369.108ZM156.932 394.06C155.967 398.55 139.576 413.844 136.043 414.24C132.51 414.635 130.721 413.848 130.721 413.848L136.882 397.451L124.096 394.706C119.626 393.746 116.701 389.714 117.666 385.222L124.232 365.35C125.197 360.86 129.644 357.805 134.114 358.765L155.448 363.347L155.301 363.67C159.771 364.63 162.224 369.418 161.26 373.908L157.444 391.676L156.932 394.06ZM177.305 395.941C176.844 398.091 176.378 399.008 174.235 398.548L164.971 396.558C162.831 396.099 161.396 394.775 161.858 392.623L165.674 374.856L166.109 372.827C166.448 371.248 167.718 369.672 169.213 369.123L167.849 375.476C167.392 377.605 168.999 379.763 171.433 380.285C173.867 380.808 176.219 379.501 176.676 377.371L178.146 370.53L179.249 370.767L179.08 371.085C181.222 371.545 182.019 373.994 181.557 376.144L177.305 395.941Z" fill="#FF5656" fill-opacity="0.1"/>
<path d="M172.165 376.88C172.774 377.011 173.375 376.623 173.506 376.014L173.98 373.807C174.11 373.198 173.722 372.597 173.113 372.467C172.504 372.336 171.904 372.724 171.773 373.333L171.299 375.54C171.168 376.149 171.556 376.749 172.165 376.88Z" fill="#FF5656" fill-opacity="0.1"/>
</g>
<path d="M929.513 148.789C919.996 152.903 912.648 161.323 909.505 171.156C907.001 178.998 907.832 186.7 909.766 194.51L914.538 213.775C914.763 214.621 915.307 215.347 916.057 215.799C916.806 216.252 917.702 216.396 918.555 216.201L924.82 214.649L926.348 220.817C926.573 221.664 927.119 222.39 927.869 222.842C928.619 223.295 929.515 223.438 930.369 223.242L975.529 212.056C976.375 211.831 977.101 211.286 977.554 210.535C978.006 209.785 978.149 208.889 977.953 208.035L976.413 201.817L982.997 200.186C983.844 199.961 984.57 199.416 985.022 198.666C985.474 197.916 985.618 197.019 985.421 196.166L979.777 173.379C974.08 151.619 950.239 139.828 929.513 148.789ZM914.444 181.665C914.767 162.32 933.99 148.014 952.623 153.453C962.903 156.446 970.631 164.679 973.332 174.977L978.178 194.539L971.594 196.17C970.747 196.395 970.021 196.94 969.569 197.691C969.117 198.441 968.973 199.337 969.17 200.191L970.71 206.409L931.995 215.998L930.467 209.83C930.243 208.983 929.698 208.256 928.947 207.803C928.197 207.351 927.3 207.207 926.446 207.403L920.181 208.955L917.528 198.243C916.188 192.835 914.354 187.295 914.444 181.665Z" fill="#FF5656" fill-opacity="0.1"/>
<path d="M936.552 195.055C940.216 197.264 943.647 191.579 939.978 189.372L929.925 183.311C926.261 181.101 922.831 186.787 926.498 188.993L936.552 195.055Z" fill="#FF5656" fill-opacity="0.1"/>
<path d="M957.224 189.935L963.293 179.879C965.502 176.215 959.817 172.786 957.61 176.453L951.548 186.507C949.327 190.17 955.013 193.601 957.224 189.935Z" fill="#FF5656" fill-opacity="0.1"/>
<g clip-path="url(#clip5_446_906)">
<path d="M662.071 111.748C640.704 104.355 617.394 115.679 610.001 137.046C602.607 158.413 613.932 181.722 635.299 189.116C656.666 196.51 679.975 185.185 687.369 163.818C694.762 142.451 683.438 119.142 662.071 111.748ZM627.393 137.345C627.78 136.227 628.418 135.264 629.215 134.524L624.977 131.907L627.316 128.08L645.636 139.293L643.297 143.119L640.816 141.584C640.774 141.705 640.762 141.836 640.721 141.957C639.445 145.644 635.458 147.581 631.771 146.305C628.054 145.019 626.117 141.032 627.393 137.345ZM645.037 178.577C636.575 175.649 631.232 170.552 628.369 167.091L624.508 169.545L622.093 165.765L631.201 159.983C631.201 159.983 637.188 169.77 650.294 173.459L648.817 179.682C647.506 179.364 646.215 178.985 645.037 178.577ZM673.511 153.304C672.236 156.991 668.219 158.917 664.562 157.652C660.875 156.376 658.938 152.39 660.214 148.703C660.256 148.582 660.297 148.461 660.369 148.35L657.471 148.024L657.997 143.57L679.328 146.078L678.802 150.532L673.863 149.94C673.992 151.034 673.898 152.186 673.511 153.304Z" fill="#FF5656" fill-opacity="0.1"/>
</g>
<g clip-path="url(#clip6_446_906)">
<path d="M309.023 476.934C287.169 482.545 274.004 504.804 279.614 526.658C285.225 548.512 307.484 561.677 329.338 556.067C351.192 550.456 364.357 528.197 358.747 506.343C353.136 484.489 330.877 471.324 309.023 476.934ZM294.254 517.331C293.961 516.187 293.961 515.034 294.218 513.98L289.249 514.135L289.09 509.662L310.51 508.908L310.67 513.381L307.76 513.469C307.792 513.592 307.854 513.708 307.886 513.832C308.854 517.603 306.603 521.41 302.831 522.378C299.029 523.354 295.222 521.102 294.254 517.331ZM331.64 541.934C322.985 544.156 315.732 542.855 311.444 541.55L309.581 545.719L305.491 543.902L309.887 534.075C309.887 534.075 320.259 538.925 333.197 534.78L335.395 540.772C334.128 541.229 332.846 541.624 331.64 541.934ZM341.425 505.222C342.393 508.993 340.11 512.808 336.37 513.768C332.599 514.736 328.792 512.484 327.824 508.713C327.792 508.59 327.76 508.466 327.759 508.334L325.167 509.659L323.153 505.662L342.287 496.005L344.302 500.002L339.865 502.228C340.575 503.068 341.131 504.078 341.425 505.222Z" fill="#FF5656" fill-opacity="0.1"/>
</g>
<g clip-path="url(#clip7_446_906)">
<path d="M871.018 432.724C854.305 418.991 829.63 421.406 815.897 438.119C802.165 454.832 804.58 479.507 821.293 493.239C838.005 506.972 862.68 504.557 876.413 487.844C890.146 471.131 887.73 446.456 871.018 432.724ZM831.401 444.166C832.12 443.292 833.013 442.639 833.973 442.241L831.041 438.485L834.411 435.829L847.121 451.975L843.751 454.631L842.035 452.429C841.958 452.524 841.904 452.638 841.826 452.732C839.456 455.616 835.236 456.029 832.352 453.659C829.445 451.27 829.032 447.05 831.401 444.166ZM833.531 487.02C826.912 481.581 823.813 475.233 822.394 471.177L818.114 472.095L817.204 467.902L827.296 465.741C827.296 465.741 829.415 476.511 839.948 484.175L836.555 489.267C835.485 488.546 834.453 487.778 833.531 487.02ZM867.474 473.807C865.105 476.691 860.861 477.085 858.001 474.734C855.117 472.365 854.703 468.144 857.073 465.26C857.151 465.166 857.229 465.071 857.33 464.996L854.838 463.74L856.789 459.919L875.094 469.257L873.142 473.078L868.908 470.906C868.66 471.93 868.193 472.932 867.474 473.807Z" fill="#FF5656" fill-opacity="0.1"/>
</g>
<defs>
<clipPath id="clip0_446_906">
<rect width="81.5375" height="81.5375" fill="white" transform="translate(91.6719 168.03) rotate(-18.1992)"/>
</clipPath>
<clipPath id="clip1_446_906">
<rect width="97.7199" height="97.7199" fill="white" transform="translate(372.26 234) rotate(18.2769)"/>
</clipPath>
<clipPath id="clip2_446_906">
<rect width="79" height="79" fill="white" transform="translate(354.176 77.5864) rotate(12.1213)"/>
</clipPath>
<clipPath id="clip3_446_906">
<rect width="79" height="79" fill="white" transform="translate(588.59 490) rotate(12.1213)"/>
</clipPath>
<clipPath id="clip4_446_906">
<rect width="79" height="79" fill="white" transform="translate(117.59 343) rotate(12.1213)"/>
</clipPath>
<clipPath id="clip5_446_906">
<rect width="83.1483" height="83.1483" fill="white" transform="translate(622.992 97.5486) rotate(19.0874)"/>
</clipPath>
<clipPath id="clip6_446_906">
<rect width="82.9748" height="82.9748" fill="white" transform="translate(268.68 486.632) rotate(-14.398)"/>
</clipPath>
<clipPath id="clip7_446_906">
<rect width="79.5482" height="79.5482" fill="white" transform="translate(840.676 407) rotate(39.4095)"/>
</clipPath>
</defs>
</svg>
