<svg width="1167" height="690" viewBox="0 0 1167 690" fill="none" xmlns="http://www.w3.org/2000/svg">
<path d="M0 1.80682H1145.13C1153.42 1.80682 1160.13 8.52255 1160.13 16.8068V659.807C1160.13 668.091 1153.42 674.807 1145.13 674.807H0V1.80682Z" fill="white"/>
<g clip-path="url(#clip0_446_465)">
<path fill-rule="evenodd" clip-rule="evenodd" d="M150.312 424.736C149.454 424.736 148.74 424.092 148.668 423.235C148.525 422.234 148.382 421.091 148.239 419.876C147.668 415.659 146.953 410.87 148.74 407.368C151.598 401.436 150.741 399.721 149.168 396.648C148.454 395.218 147.596 393.646 147.024 391.43C144.594 382.782 148.954 375.064 149.097 374.778C149.597 373.92 150.598 373.706 151.384 374.134C152.17 374.563 152.456 375.635 152.027 376.422C151.956 376.493 148.168 383.283 150.24 390.573C150.741 392.431 151.455 393.789 152.099 395.147C153.885 398.506 155.386 401.365 151.741 408.798C150.455 411.442 151.027 415.659 151.527 419.375C151.67 420.662 151.884 421.877 151.956 422.949C152.027 423.878 151.384 424.664 150.455 424.736C150.383 424.736 150.312 424.736 150.312 424.736Z" fill="#30AD43" fill-opacity="0.07"/>
<path fill-rule="evenodd" clip-rule="evenodd" d="M181.83 405.867C180.972 405.867 180.186 405.224 180.114 404.366C180.043 403.294 179.9 402.151 179.757 400.936C179.114 396.791 178.471 392.002 180.186 388.428C183.116 382.568 182.259 380.853 180.686 377.779C179.971 376.35 179.114 374.778 178.542 372.562C176.112 363.914 180.4 356.195 180.615 355.838C181.044 355.052 182.116 354.766 182.902 355.266C183.688 355.695 183.974 356.696 183.474 357.482C183.474 357.625 179.686 364.414 181.687 371.633C182.259 373.563 182.973 374.921 183.616 376.207C185.332 379.566 186.833 382.496 183.188 389.929C181.901 392.502 182.544 396.791 183.045 400.507C183.188 401.793 183.331 402.937 183.474 404.081C183.545 404.938 182.83 405.796 181.973 405.867C181.901 405.867 181.83 405.867 181.83 405.867Z" fill="#30AD43" fill-opacity="0.07"/>
<path fill-rule="evenodd" clip-rule="evenodd" d="M150.096 368.989C138.733 368.989 129.441 358.411 129.441 345.403C129.441 332.324 138.733 321.747 150.096 321.747C161.532 321.747 170.823 332.324 170.823 345.403C170.823 358.411 161.532 368.989 150.096 368.989ZM150.096 362.699C142.163 362.699 135.731 354.909 135.731 345.403C135.731 344.474 136.517 343.688 137.446 343.688C138.304 343.688 139.09 344.474 139.09 345.403C139.09 353.122 144.021 359.411 150.096 359.411C151.025 359.411 151.812 360.126 151.812 361.055C151.812 361.984 151.025 362.699 150.096 362.699Z" fill="#30AD43" fill-opacity="0.07"/>
<path fill-rule="evenodd" clip-rule="evenodd" d="M181.615 350.12C178.97 350.12 176.397 349.549 173.967 348.477C174.039 347.404 174.11 346.404 174.11 345.403C174.11 335.898 169.536 326.392 161.389 321.532C163.39 310.883 171.68 302.807 181.615 302.807C193.05 302.807 202.27 313.456 202.27 326.464C202.27 339.543 193.05 350.12 181.615 350.12Z" fill="#30AD43" fill-opacity="0.07"/>
<path fill-rule="evenodd" clip-rule="evenodd" d="M118.65 350.12C107.215 350.12 97.9238 339.543 97.9238 326.464C97.9238 313.456 107.215 302.807 118.65 302.807C124.225 302.807 129.442 305.308 133.302 309.811C136.16 313.099 138.019 317.172 138.876 321.532C130.657 326.392 126.083 335.898 126.083 345.403C126.083 346.404 126.155 347.404 126.298 348.477C123.868 349.549 121.295 350.12 118.65 350.12Z" fill="#30AD43" fill-opacity="0.07"/>
<path fill-rule="evenodd" clip-rule="evenodd" d="M153.457 377.279H146.81C145.738 377.279 144.666 376.707 144.023 375.85C143.522 375.135 143.308 374.277 143.522 373.491L144.094 371.49C146.095 372.062 148.096 372.348 150.098 372.348C152.17 372.348 154.171 372.062 156.101 371.49L156.673 373.491C156.959 374.277 156.744 375.135 156.244 375.85C155.601 376.707 154.529 377.279 153.457 377.279Z" fill="#30AD43" fill-opacity="0.07"/>
<path fill-rule="evenodd" clip-rule="evenodd" d="M184.903 358.339H178.328C177.256 358.339 176.183 357.839 175.54 356.982C174.968 356.267 174.826 355.409 175.04 354.552L175.612 352.622C177.541 353.194 179.614 353.479 181.615 353.479C183.688 353.479 185.689 353.194 187.619 352.622L188.191 354.552C188.405 355.409 188.262 356.267 187.69 356.982C187.047 357.839 185.975 358.339 184.903 358.339Z" fill="#30AD43" fill-opacity="0.07"/>
<path fill-rule="evenodd" clip-rule="evenodd" d="M121.938 358.339H115.291C114.219 358.339 113.147 357.839 112.504 356.982C112.004 356.267 111.789 355.409 112.075 354.552L112.647 352.622C114.577 353.194 116.578 353.479 118.651 353.479C120.652 353.479 122.653 353.194 124.654 352.622L125.154 354.552C125.44 355.409 125.226 356.267 124.726 356.982C124.082 357.839 123.01 358.339 121.938 358.339Z" fill="#30AD43" fill-opacity="0.07"/>
<path fill-rule="evenodd" clip-rule="evenodd" d="M118.792 405.867C117.935 405.867 117.22 405.224 117.149 404.366C117.077 403.294 116.863 402.151 116.72 400.936C116.148 396.719 115.505 392.002 117.22 388.428C120.15 382.568 119.293 380.853 117.649 377.779C116.934 376.35 116.148 374.778 115.505 372.562C113.075 363.914 117.434 356.195 117.577 355.838C118.078 355.052 119.078 354.766 119.864 355.266C120.651 355.695 120.937 356.696 120.508 357.482C120.436 357.625 116.648 364.414 118.721 371.633C119.221 373.563 119.936 374.921 120.651 376.207C122.366 379.566 123.867 382.496 120.222 389.929C118.935 392.502 119.507 396.791 120.007 400.507C120.222 401.793 120.365 402.937 120.436 404.081C120.508 404.938 119.864 405.796 118.935 405.867C118.864 405.867 118.864 405.867 118.792 405.867Z" fill="#30AD43" fill-opacity="0.07"/>
</g>
<g clip-path="url(#clip1_446_465)">
<path fill-rule="evenodd" clip-rule="evenodd" d="M740.312 634.735C739.454 634.735 738.74 634.091 738.668 633.234C738.525 632.233 738.382 631.09 738.239 629.875C737.668 625.658 736.953 620.869 738.74 617.367C741.598 611.435 740.741 609.72 739.168 606.647C738.454 605.217 737.596 603.645 737.024 601.429C734.594 592.782 738.954 585.063 739.097 584.777C739.597 583.919 740.598 583.705 741.384 584.134C742.17 584.562 742.456 585.634 742.027 586.421C741.956 586.492 738.168 593.282 740.24 600.572C740.741 602.43 741.455 603.788 742.099 605.146C743.885 608.505 745.386 611.364 741.741 618.797C740.455 621.441 741.027 625.658 741.527 629.374C741.67 630.661 741.884 631.876 741.956 632.948C742.027 633.877 741.384 634.663 740.455 634.735C740.383 634.735 740.312 634.735 740.312 634.735Z" fill="#30AD43" fill-opacity="0.07"/>
<path fill-rule="evenodd" clip-rule="evenodd" d="M771.83 615.867C770.972 615.867 770.186 615.223 770.114 614.366C770.043 613.294 769.9 612.15 769.757 610.935C769.114 606.79 768.471 602.001 770.186 598.428C773.116 592.567 772.259 590.852 770.686 587.779C769.971 586.349 769.114 584.777 768.542 582.561C766.112 573.913 770.4 566.195 770.615 565.837C771.044 565.051 772.116 564.765 772.902 565.265C773.688 565.694 773.974 566.695 773.474 567.481C773.474 567.624 769.686 574.414 771.687 581.632C772.259 583.562 772.973 584.92 773.616 586.206C775.332 589.565 776.833 592.496 773.188 599.929C771.901 602.502 772.544 606.79 773.045 610.506C773.188 611.793 773.331 612.936 773.474 614.08C773.545 614.937 772.83 615.795 771.973 615.867C771.901 615.867 771.83 615.867 771.83 615.867Z" fill="#30AD43" fill-opacity="0.07"/>
<path fill-rule="evenodd" clip-rule="evenodd" d="M740.096 578.988C728.733 578.988 719.441 568.41 719.441 555.403C719.441 542.323 728.733 531.746 740.096 531.746C751.532 531.746 760.823 542.323 760.823 555.403C760.823 568.41 751.532 578.988 740.096 578.988ZM740.096 572.698C732.163 572.698 725.731 564.908 725.731 555.403C725.731 554.473 726.517 553.687 727.446 553.687C728.304 553.687 729.09 554.473 729.09 555.403C729.09 563.121 734.021 569.411 740.096 569.411C741.025 569.411 741.812 570.125 741.812 571.055C741.812 571.984 741.025 572.698 740.096 572.698Z" fill="#30AD43" fill-opacity="0.07"/>
<path fill-rule="evenodd" clip-rule="evenodd" d="M771.615 560.12C768.97 560.12 766.397 559.548 763.967 558.476C764.039 557.404 764.11 556.403 764.11 555.403C764.11 545.897 759.536 536.391 751.389 531.531C753.39 520.882 761.68 512.806 771.615 512.806C783.05 512.806 792.27 523.455 792.27 536.463C792.27 549.542 783.05 560.12 771.615 560.12Z" fill="#30AD43" fill-opacity="0.07"/>
<path fill-rule="evenodd" clip-rule="evenodd" d="M708.65 560.12C697.215 560.12 687.924 549.542 687.924 536.463C687.924 523.455 697.215 512.806 708.65 512.806C714.225 512.806 719.442 515.308 723.302 519.81C726.16 523.098 728.019 527.172 728.876 531.531C720.657 536.391 716.083 545.897 716.083 555.403C716.083 556.403 716.155 557.404 716.298 558.476C713.868 559.548 711.295 560.12 708.65 560.12Z" fill="#30AD43" fill-opacity="0.07"/>
<path fill-rule="evenodd" clip-rule="evenodd" d="M743.457 587.278H736.81C735.738 587.278 734.666 586.707 734.023 585.849C733.522 585.134 733.308 584.277 733.522 583.49L734.094 581.489C736.095 582.061 738.096 582.347 740.098 582.347C742.17 582.347 744.171 582.061 746.101 581.489L746.673 583.49C746.959 584.277 746.744 585.134 746.244 585.849C745.601 586.707 744.529 587.278 743.457 587.278Z" fill="#30AD43" fill-opacity="0.07"/>
<path fill-rule="evenodd" clip-rule="evenodd" d="M774.903 568.339H768.328C767.256 568.339 766.183 567.838 765.54 566.981C764.968 566.266 764.826 565.408 765.04 564.551L765.612 562.621C767.541 563.193 769.614 563.479 771.615 563.479C773.688 563.479 775.689 563.193 777.619 562.621L778.191 564.551C778.405 565.408 778.262 566.266 777.69 566.981C777.047 567.838 775.975 568.339 774.903 568.339Z" fill="#30AD43" fill-opacity="0.07"/>
<path fill-rule="evenodd" clip-rule="evenodd" d="M711.938 568.339H705.291C704.219 568.339 703.147 567.838 702.504 566.981C702.004 566.266 701.789 565.408 702.075 564.551L702.647 562.621C704.577 563.193 706.578 563.479 708.651 563.479C710.652 563.479 712.653 563.193 714.654 562.621L715.154 564.551C715.44 565.408 715.226 566.266 714.726 566.981C714.082 567.838 713.01 568.339 711.938 568.339Z" fill="#30AD43" fill-opacity="0.07"/>
<path fill-rule="evenodd" clip-rule="evenodd" d="M708.792 615.867C707.935 615.867 707.22 615.223 707.149 614.366C707.077 613.294 706.863 612.15 706.72 610.935C706.148 606.718 705.505 602.001 707.22 598.428C710.15 592.567 709.293 590.852 707.649 587.779C706.934 586.349 706.148 584.777 705.505 582.561C703.075 573.913 707.434 566.195 707.577 565.837C708.078 565.051 709.078 564.765 709.864 565.265C710.651 565.694 710.937 566.695 710.508 567.481C710.436 567.624 706.648 574.414 708.721 581.632C709.221 583.562 709.936 584.92 710.651 586.206C712.366 589.565 713.867 592.496 710.222 599.929C708.935 602.502 709.507 606.79 710.007 610.506C710.222 611.793 710.365 612.936 710.436 614.08C710.508 614.937 709.864 615.795 708.935 615.867C708.864 615.867 708.864 615.867 708.792 615.867Z" fill="#30AD43" fill-opacity="0.07"/>
</g>
<g clip-path="url(#clip2_446_465)">
<path fill-rule="evenodd" clip-rule="evenodd" d="M522.819 219.732C521.926 219.732 521.182 219.063 521.107 218.17C520.959 217.128 520.81 215.938 520.661 214.673C520.066 210.284 519.322 205.299 521.182 201.653C524.158 195.478 523.265 193.693 521.628 190.493C520.884 189.005 519.991 187.369 519.396 185.062C516.867 176.06 521.405 168.025 521.554 167.727C522.075 166.834 523.116 166.611 523.935 167.058C524.753 167.504 525.051 168.62 524.604 169.438C524.53 169.513 520.587 176.581 522.744 184.17C523.265 186.104 524.009 187.517 524.679 188.931C526.539 192.428 528.101 195.404 524.307 203.141C522.967 205.894 523.563 210.284 524.083 214.153C524.232 215.492 524.455 216.756 524.53 217.872C524.604 218.84 523.935 219.658 522.967 219.732C522.893 219.732 522.819 219.732 522.819 219.732Z" fill="#30AD43" fill-opacity="0.07"/>
<path fill-rule="evenodd" clip-rule="evenodd" d="M555.628 200.091C554.735 200.091 553.917 199.421 553.842 198.529C553.768 197.413 553.619 196.222 553.47 194.957C552.801 190.642 552.131 185.657 553.917 181.938C556.967 175.837 556.074 174.051 554.437 170.852C553.693 169.364 552.801 167.727 552.205 165.421C549.676 156.418 554.14 148.383 554.363 148.011C554.809 147.193 555.925 146.895 556.744 147.416C557.562 147.863 557.86 148.904 557.339 149.723C557.339 149.871 553.396 156.939 555.479 164.454C556.074 166.462 556.818 167.876 557.488 169.215C559.273 172.712 560.836 175.762 557.041 183.5C555.702 186.178 556.372 190.642 556.892 194.511C557.041 195.85 557.19 197.041 557.339 198.231C557.413 199.124 556.669 200.017 555.777 200.091C555.702 200.091 555.628 200.091 555.628 200.091Z" fill="#30AD43" fill-opacity="0.07"/>
<path fill-rule="evenodd" clip-rule="evenodd" d="M522.595 161.701C510.766 161.701 501.094 150.69 501.094 137.149C501.094 123.534 510.766 112.523 522.595 112.523C534.499 112.523 544.171 123.534 544.171 137.149C544.171 150.69 534.499 161.701 522.595 161.701ZM522.595 155.154C514.337 155.154 507.641 147.044 507.641 137.149C507.641 136.182 508.459 135.363 509.426 135.363C510.319 135.363 511.138 136.182 511.138 137.149C511.138 145.184 516.271 151.731 522.595 151.731C523.562 151.731 524.381 152.475 524.381 153.443C524.381 154.41 523.562 155.154 522.595 155.154Z" fill="#30AD43" fill-opacity="0.07"/>
<path fill-rule="evenodd" clip-rule="evenodd" d="M555.405 142.059C552.652 142.059 549.974 141.464 547.444 140.348C547.518 139.232 547.593 138.191 547.593 137.149C547.593 127.254 542.831 117.359 534.35 112.3C536.433 101.214 545.063 92.8069 555.405 92.8069C567.309 92.8069 576.906 103.892 576.906 117.433C576.906 131.048 567.309 142.059 555.405 142.059Z" fill="#30AD43" fill-opacity="0.07"/>
<path fill-rule="evenodd" clip-rule="evenodd" d="M489.859 142.059C477.955 142.059 468.283 131.048 468.283 117.433C468.283 103.892 477.955 92.8069 489.859 92.8069C495.662 92.8069 501.093 95.4109 505.111 100.098C508.087 103.52 510.021 107.761 510.914 112.3C502.358 117.359 497.597 127.254 497.597 137.149C497.597 138.191 497.671 139.232 497.82 140.348C495.29 141.464 492.612 142.059 489.859 142.059Z" fill="#30AD43" fill-opacity="0.07"/>
<path fill-rule="evenodd" clip-rule="evenodd" d="M526.092 170.331H519.173C518.057 170.331 516.941 169.736 516.271 168.843C515.75 168.099 515.527 167.206 515.75 166.388L516.345 164.305C518.429 164.9 520.512 165.198 522.595 165.198C524.753 165.198 526.836 164.9 528.845 164.305L529.44 166.388C529.737 167.206 529.514 168.099 528.993 168.843C528.324 169.736 527.208 170.331 526.092 170.331Z" fill="#30AD43" fill-opacity="0.07"/>
<path fill-rule="evenodd" clip-rule="evenodd" d="M558.827 150.615H551.982C550.866 150.615 549.75 150.094 549.08 149.202C548.485 148.458 548.336 147.565 548.559 146.672L549.155 144.663C551.163 145.259 553.321 145.556 555.404 145.556C557.562 145.556 559.645 145.259 561.654 144.663L562.249 146.672C562.472 147.565 562.323 148.458 561.728 149.202C561.059 150.094 559.943 150.615 558.827 150.615Z" fill="#30AD43" fill-opacity="0.07"/>
<path fill-rule="evenodd" clip-rule="evenodd" d="M493.281 150.615H486.362C485.246 150.615 484.13 150.094 483.461 149.202C482.94 148.458 482.717 147.565 483.014 146.672L483.609 144.663C485.618 145.259 487.701 145.556 489.859 145.556C491.942 145.556 494.025 145.259 496.108 144.663L496.629 146.672C496.927 147.565 496.704 148.458 496.183 149.202C495.513 150.094 494.397 150.615 493.281 150.615Z" fill="#30AD43" fill-opacity="0.07"/>
<path fill-rule="evenodd" clip-rule="evenodd" d="M490.008 200.091C489.115 200.091 488.371 199.421 488.297 198.529C488.222 197.413 487.999 196.222 487.85 194.957C487.255 190.568 486.586 185.657 488.371 181.938C491.422 175.837 490.529 174.051 488.818 170.852C488.074 169.364 487.255 167.727 486.586 165.421C484.056 156.418 488.594 148.383 488.743 148.011C489.264 147.193 490.306 146.895 491.124 147.416C491.942 147.863 492.24 148.904 491.794 149.723C491.719 149.871 487.776 156.939 489.934 164.454C490.454 166.462 491.198 167.876 491.942 169.215C493.728 172.712 495.29 175.762 491.496 183.5C490.157 186.178 490.752 190.642 491.273 194.511C491.496 195.85 491.645 197.041 491.719 198.231C491.794 199.124 491.124 200.017 490.157 200.091C490.082 200.091 490.082 200.091 490.008 200.091Z" fill="#30AD43" fill-opacity="0.07"/>
</g>
<g clip-path="url(#clip3_446_465)">
<path fill-rule="evenodd" clip-rule="evenodd" d="M750.008 255.68L777.458 257.835C782.486 258.231 785.435 252.389 782.207 248.523L764.481 227.311L774.839 201.729C776.731 197.061 772.076 192.383 767.447 194.279L741.971 204.555L720.921 186.689C717.114 183.436 711.25 186.405 711.619 191.399L713.533 218.89L690.171 233.34C685.902 235.949 686.918 242.47 691.8 243.707L718.55 250.502L725.154 277.345C726.359 282.235 732.814 283.316 735.47 279.029L750.008 255.68Z" fill="#30AD43" fill-opacity="0.07"/>
</g>
<g clip-path="url(#clip4_446_465)">
<path fill-rule="evenodd" clip-rule="evenodd" d="M320.008 95.6798L347.458 97.8346C352.486 98.231 355.435 92.3889 352.207 88.5229L334.481 67.3109L344.839 41.7288C346.731 37.0613 342.076 32.3831 337.447 34.2793L311.971 44.5553L290.921 26.689C287.114 23.4359 281.25 26.4051 281.619 31.3987L283.533 58.8897L260.171 73.34C255.902 75.9489 256.918 82.47 261.8 83.7076L288.55 90.5017L295.154 117.345C296.359 122.235 302.814 123.316 305.47 119.029L320.008 95.6798Z" fill="#30AD43" fill-opacity="0.07"/>
</g>
<g clip-path="url(#clip5_446_465)">
<path fill-rule="evenodd" clip-rule="evenodd" d="M173.322 614.798L165.55 641.213C164.125 646.051 169.232 650.142 173.681 647.782L198.094 634.814L220.989 650.228C225.165 653.042 230.703 649.453 229.803 644.532L225.005 617.484L246.83 600.574C250.799 597.52 249.104 591.169 244.142 590.5L216.847 586.7L207.528 560.859C205.857 556.144 199.266 555.792 197.048 560.314L184.88 585.086L157.252 586.009C152.219 586.18 149.829 592.272 153.476 595.756L173.322 614.798Z" fill="#30AD43" fill-opacity="0.07"/>
</g>
<g clip-path="url(#clip6_446_465)">
<path fill-rule="evenodd" clip-rule="evenodd" d="M1096.93 588.191L1116.13 607.924C1119.65 611.539 1125.72 609.096 1125.84 604.061L1126.52 576.426L1151.18 564.039C1155.69 561.781 1155.28 555.194 1150.55 553.564L1124.62 544.474L1120.6 517.159C1119.88 512.203 1113.52 510.564 1110.5 514.56L1093.8 536.479L1066.71 531.921C1061.78 531.064 1058.24 536.634 1061.09 540.786L1076.71 563.542L1063.95 588.069C1061.63 592.539 1065.77 597.61 1070.6 596.142L1096.93 588.191Z" fill="#30AD43" fill-opacity="0.07"/>
</g>
<g clip-path="url(#clip7_446_465)">
<path fill-rule="evenodd" clip-rule="evenodd" d="M371.812 266.416L387.523 289.028C390.399 293.171 396.788 291.755 397.737 286.809L402.934 259.658L429.294 251.479C434.105 249.989 434.779 243.424 430.38 241.041L406.297 227.827L406.8 200.222C406.908 195.216 400.897 192.556 397.265 196.003L377.197 214.89L351.221 205.955C346.499 204.302 342.094 209.217 344.227 213.779L355.904 238.787L339.306 260.894C336.284 264.923 339.534 270.603 344.534 269.945L371.812 266.416Z" fill="#30AD43" fill-opacity="0.07"/>
</g>
<rect y="4" width="1167" height="686" rx="15" fill="#30AD43" fill-opacity="0.03"/>
<g clip-path="url(#clip8_446_465)">
<path d="M529.483 288.403L535.748 282.298C536.157 281.9 536.304 281.304 536.128 280.76C535.951 280.217 535.482 279.821 534.917 279.739L526.26 278.48L522.387 270.639C522.135 270.127 521.613 269.803 521.043 269.803C520.473 269.803 519.951 270.127 519.698 270.638L515.821 278.48L507.168 279.739C506.602 279.821 506.133 280.217 505.956 280.76C505.78 281.302 505.927 281.899 506.335 282.298L512.597 288.403L511.123 297.025C511.027 297.587 511.258 298.156 511.72 298.492C512.183 298.828 512.794 298.873 513.3 298.606L521.042 294.535L528.784 298.606C529.004 298.721 529.243 298.778 529.482 298.778C529.793 298.778 530.102 298.681 530.364 298.492C530.826 298.156 531.057 297.588 530.961 297.024L529.483 288.403ZM526.824 286.805C526.47 287.15 526.309 287.646 526.392 288.133L527.49 294.535L521.74 291.512C521.302 291.283 520.781 291.283 520.344 291.512L514.592 294.537L515.687 288.133C515.77 287.647 515.609 287.151 515.256 286.806L510.605 282.271L517.032 281.336C517.52 281.265 517.942 280.959 518.161 280.516L521.042 274.689L523.919 280.515C524.137 280.958 524.56 281.264 525.048 281.335L531.477 282.27L526.824 286.805Z" fill="#30AD43" fill-opacity="0.07"/>
<path d="M535.022 287.731C534.216 287.546 533.413 288.065 533.236 288.875C533.059 289.685 533.571 290.484 534.381 290.661C534.586 290.706 554.926 295.367 561.366 314.614C561.576 315.242 562.161 315.638 562.789 315.638C562.946 315.638 563.107 315.614 563.265 315.561C564.051 315.297 564.475 314.448 564.212 313.663C557.236 292.817 535.925 287.928 535.022 287.731Z" fill="#30AD43" fill-opacity="0.07"/>
<path d="M568.454 303.707C553.542 294.128 558.939 268.174 558.995 267.913C559.17 267.103 558.655 266.305 557.846 266.13C557.045 265.958 556.24 266.468 556.064 267.278C556.002 267.563 554.558 274.354 555.097 282.53C555.823 293.57 559.882 301.765 566.833 306.23C567.084 306.391 567.364 306.468 567.643 306.468C568.136 306.468 568.62 306.225 568.906 305.779C569.354 305.082 569.152 304.154 568.454 303.707Z" fill="#30AD43" fill-opacity="0.07"/>
<path d="M553.013 263.952L558.824 263.172L562.752 267.517C563.04 267.836 563.446 268.011 563.864 268.011C564.001 268.011 564.138 267.992 564.274 267.954C564.823 267.798 565.236 267.344 565.339 266.782L566.397 261.019L571.751 258.615C572.272 258.381 572.615 257.872 572.636 257.302C572.657 256.731 572.352 256.198 571.85 255.927L566.692 253.143L566.063 247.313C566.001 246.746 565.624 246.262 565.087 246.065C564.55 245.867 563.95 245.993 563.536 246.388L559.291 250.433L553.553 249.228C552.995 249.108 552.417 249.321 552.065 249.77C551.712 250.219 551.646 250.83 551.893 251.345L554.427 256.631L551.513 261.721C551.229 262.216 551.252 262.829 551.57 263.304C551.888 263.776 552.45 264.026 553.013 263.952ZM557.472 256.044L555.911 252.789L559.446 253.531C559.929 253.632 560.431 253.489 560.79 253.149L563.406 250.656L563.794 254.249C563.847 254.74 564.138 255.173 564.572 255.408L567.75 257.123L564.45 258.605C564 258.807 563.678 259.217 563.589 259.702L562.938 263.249L560.52 260.574C560.234 260.257 559.829 260.08 559.408 260.08C559.342 260.08 559.275 260.084 559.209 260.093L555.626 260.574L557.421 257.437C557.665 257.009 557.685 256.488 557.472 256.044Z" fill="#30AD43" fill-opacity="0.07"/>
<path d="M604.231 268.621C603.981 268.108 603.46 267.781 602.89 267.778L598.847 267.758L596.58 264.42C596.259 263.948 595.698 263.702 595.132 263.777C594.567 263.856 594.095 264.249 593.915 264.791L592.644 268.625L588.763 269.76C588.215 269.92 587.805 270.378 587.706 270.94C587.607 271.502 587.837 272.072 588.297 272.409L591.555 274.796L591.428 278.838C591.409 279.409 591.717 279.94 592.221 280.209C592.443 280.327 592.685 280.386 592.927 280.386C593.235 280.386 593.541 280.291 593.801 280.105L597.084 277.75L600.884 279.114C601.42 279.307 602.021 279.179 602.433 278.781C602.843 278.385 602.994 277.789 602.82 277.245L601.59 273.392L604.069 270.197C604.417 269.746 604.481 269.135 604.231 268.621ZM598.491 273.553L599.037 275.263L597.356 274.66C596.892 274.493 596.376 274.565 595.975 274.853L594.521 275.895L594.578 274.101C594.594 273.606 594.364 273.136 593.966 272.844L592.523 271.786L594.241 271.283C594.714 271.145 595.089 270.783 595.244 270.316L595.806 268.62L596.809 270.097C597.087 270.506 597.548 270.752 598.042 270.754L599.832 270.763L598.734 272.178C598.432 272.568 598.341 273.083 598.491 273.553Z" fill="#30AD43" fill-opacity="0.07"/>
<path d="M586.012 275.562C585.749 275.539 579.367 275.069 574.212 279.812C570.081 283.614 567.986 289.569 567.986 297.514C567.986 298.342 568.658 299.014 569.486 299.014C570.314 299.014 570.986 298.342 570.986 297.514C570.986 290.465 572.744 285.263 576.211 282.05C580.377 278.189 585.713 278.55 585.769 278.552C586.605 278.625 587.314 278.005 587.383 277.181C587.451 276.356 586.838 275.63 586.012 275.562Z" fill="#30AD43" fill-opacity="0.07"/>
</g>
<g clip-path="url(#clip9_446_465)">
<path d="M614.584 617.461L610.397 609.403C610.124 608.877 610.183 608.265 610.551 607.824C610.918 607.384 611.529 607.191 612.128 607.327L621.294 609.412L627.933 603.552C628.366 603.169 629.005 603.063 629.58 603.278C630.154 603.493 630.568 603.992 630.644 604.564L631.818 613.345L640.102 617.779C640.644 618.069 640.979 618.615 640.968 619.189C640.956 619.761 640.6 620.263 640.049 620.482L631.607 623.822L630.086 632.425C629.987 632.986 629.556 633.43 628.973 633.57C628.389 633.709 627.757 633.521 627.34 633.081L620.955 626.365L611.73 627.249C611.468 627.273 611.207 627.236 610.966 627.146C610.653 627.029 610.375 626.822 610.177 626.547C609.829 626.059 609.794 625.442 610.087 624.952L614.584 617.461ZM617.822 616.971C618.059 617.426 618.048 617.95 617.794 618.373L614.455 623.936L621.306 623.28C621.827 623.231 622.352 623.427 622.713 623.806L627.457 628.796L628.586 622.406C628.672 621.921 629.007 621.518 629.484 621.329L635.754 618.848L629.601 615.554C629.134 615.304 628.815 614.86 628.749 614.364L627.877 607.839L622.944 612.194C622.57 612.525 622.037 612.652 621.52 612.534L614.713 610.985L617.822 616.971Z" fill="#30AD43" fill-opacity="0.07"/>
<path d="M609.233 614.748C610.11 614.879 610.739 615.665 610.635 616.488C610.531 617.311 609.736 617.864 608.857 617.724C608.635 617.689 586.504 614.378 573.299 629.919C572.868 630.426 572.14 630.575 571.507 630.339C571.349 630.28 571.195 630.197 571.054 630.088C570.354 629.545 570.223 628.593 570.761 627.959C585.065 611.128 608.254 614.591 609.233 614.748Z" fill="#30AD43" fill-opacity="0.07"/>
<path d="M569.958 617.068C588.332 613.743 591.943 587.483 591.978 587.218C592.084 586.396 592.881 585.845 593.758 585.987C594.625 586.128 595.259 586.907 595.154 587.73C595.117 588.019 594.204 594.902 590.809 602.331C586.227 612.363 579.277 618.484 570.712 620.034C570.403 620.089 570.094 620.056 569.812 619.951C569.315 619.765 568.912 619.356 568.78 618.832C568.571 618.012 569.098 617.222 569.958 617.068Z" fill="#30AD43" fill-opacity="0.07"/>
<path d="M599.39 585.775L593.804 582.858L588.329 585.434C587.927 585.623 587.457 585.634 587.035 585.476C586.897 585.425 586.766 585.355 586.642 585.269C586.143 584.916 585.885 584.337 585.977 583.773L586.92 577.995L582.361 573.735C581.918 573.32 581.749 572.716 581.927 572.176C582.105 571.635 582.598 571.252 583.199 571.188L589.37 570.532L592.037 565.327C592.298 564.821 592.847 564.511 593.457 564.53C594.067 564.547 594.628 564.891 594.908 565.415L597.776 570.79L603.981 571.827C604.586 571.925 605.094 572.342 605.292 572.893C605.492 573.445 605.345 574.041 604.916 574.428L600.518 578.408L601.681 584.257C601.794 584.826 601.557 585.39 601.071 585.713C600.586 586.034 599.932 586.056 599.39 585.775ZM597.653 576.713L600.362 574.263L596.54 573.624C596.017 573.536 595.561 573.214 595.318 572.761L593.55 569.448L591.906 572.656C591.681 573.095 591.237 573.389 590.717 573.445L586.915 573.849L589.725 576.475C590.108 576.833 590.29 577.337 590.211 577.824L589.63 581.38L593 579.794C593.399 579.605 593.869 579.593 594.294 579.751C594.36 579.776 594.426 579.805 594.49 579.838L597.934 581.637L597.219 578.033C597.122 577.541 597.284 577.047 597.653 576.713Z" fill="#30AD43" fill-opacity="0.07"/>
<path d="M546.126 570.84C546.557 570.455 547.196 570.346 547.772 570.558L551.854 572.062L555.304 569.8C555.792 569.481 556.444 569.462 556.988 569.745C557.53 570.032 557.869 570.577 557.861 571.15L557.805 575.208L561.322 577.729C561.819 578.085 562.072 578.667 561.976 579.229C561.88 579.791 561.449 580.236 560.868 580.378L556.751 581.379L555.469 585.199C555.289 585.74 554.794 586.119 554.192 586.181C553.927 586.207 553.662 586.171 553.418 586.08C553.108 585.964 552.832 585.76 552.635 585.488L550.147 582.053L545.84 581.895C545.233 581.874 544.671 581.528 544.395 581.001C544.119 580.477 544.175 579.864 544.54 579.421L547.124 576.288L545.739 572.372C545.546 571.82 545.694 571.225 546.126 570.84ZM550.192 577.606L549.045 578.996L550.95 579.067C551.476 579.085 551.971 579.347 552.275 579.767L553.378 581.287L553.946 579.591C554.102 579.123 554.498 578.771 555.001 578.648L556.825 578.204L555.268 577.088C554.84 576.781 554.588 576.301 554.595 575.807L554.619 574.012L553.093 575.013C552.67 575.29 552.12 575.346 551.621 575.162L549.813 574.496L550.427 576.231C550.595 576.708 550.507 577.223 550.192 577.606Z" fill="#30AD43" fill-opacity="0.07"/>
<path d="M562.073 584.182C562.347 584.26 568.944 586.225 572.487 592.594C575.326 597.699 575.361 604.047 572.59 611.463C572.301 612.236 571.389 612.61 570.554 612.298C569.72 611.986 569.277 611.106 569.565 610.333C572.024 603.753 572.066 598.235 569.691 593.93C566.838 588.757 561.333 587.084 561.276 587.065C560.407 586.818 559.909 585.972 560.127 585.177C560.346 584.381 561.217 583.934 562.073 584.182Z" fill="#30AD43" fill-opacity="0.07"/>
</g>
<g clip-path="url(#clip10_446_465)">
<path d="M208.668 231.524L204.481 223.465C204.208 222.94 204.267 222.328 204.635 221.886C205.002 221.446 205.613 221.253 206.212 221.389L215.378 223.475L222.017 217.615C222.45 217.232 223.089 217.126 223.664 217.34C224.238 217.555 224.652 218.054 224.728 218.627L225.902 227.407L234.186 231.842C234.728 232.131 235.063 232.678 235.052 233.251C235.04 233.823 234.684 234.325 234.133 234.544L225.691 237.884L224.17 246.488C224.071 247.049 223.64 247.493 223.057 247.632C222.473 247.772 221.841 247.583 221.424 247.144L215.039 240.427L205.814 241.311C205.552 241.336 205.291 241.299 205.05 241.209C204.737 241.092 204.459 240.885 204.261 240.61C203.912 240.122 203.878 239.505 204.171 239.014L208.668 231.524ZM211.906 231.034C212.142 231.489 212.132 232.013 211.878 232.436L208.539 237.998L215.39 237.342C215.911 237.294 216.436 237.49 216.797 237.868L221.541 242.859L222.67 236.468C222.756 235.983 223.091 235.581 223.568 235.392L229.838 232.911L223.685 229.617C223.218 229.367 222.899 228.922 222.833 228.426L221.961 221.902L217.028 226.256C216.654 226.588 216.121 226.714 215.604 226.597L208.797 225.048L211.906 231.034Z" fill="#30AD43" fill-opacity="0.07"/>
<path d="M203.317 228.81C204.194 228.941 204.823 229.728 204.719 230.551C204.615 231.374 203.82 231.926 202.941 231.787C202.719 231.751 180.588 228.441 167.383 243.981C166.952 244.489 166.224 244.638 165.591 244.401C165.433 244.342 165.279 244.259 165.138 244.15C164.438 243.608 164.307 242.655 164.845 242.022C179.149 225.19 202.338 228.654 203.317 228.81Z" fill="#30AD43" fill-opacity="0.07"/>
<path d="M164.042 231.13C182.416 227.806 186.027 201.546 186.062 201.281C186.168 200.459 186.965 199.908 187.842 200.049C188.709 200.19 189.343 200.97 189.238 201.792C189.201 202.081 188.288 208.965 184.893 216.394C180.311 226.425 173.361 232.546 164.796 234.096C164.487 234.152 164.178 234.118 163.896 234.013C163.399 233.827 162.996 233.418 162.864 232.894C162.655 232.075 163.182 231.285 164.042 231.13Z" fill="#30AD43" fill-opacity="0.07"/>
<path d="M193.474 199.837L187.888 196.92L182.413 199.496C182.011 199.686 181.541 199.696 181.119 199.539C180.981 199.487 180.85 199.418 180.726 199.331C180.227 198.979 179.969 198.399 180.061 197.836L181.004 192.058L176.445 187.797C176.002 187.382 175.833 186.778 176.011 186.238C176.189 185.697 176.682 185.314 177.283 185.251L183.454 184.595L186.121 179.39C186.382 178.884 186.931 178.574 187.541 178.592C188.151 178.61 188.712 178.953 188.992 179.478L191.86 184.853L198.065 185.889C198.67 185.987 199.178 186.404 199.376 186.956C199.576 187.508 199.429 188.103 199 188.491L194.602 192.47L195.765 198.319C195.878 198.888 195.641 199.452 195.155 199.776C194.67 200.096 194.016 200.118 193.474 199.837ZM191.737 190.776L194.446 188.325L190.624 187.686C190.101 187.599 189.645 187.276 189.402 186.823L187.634 183.511L185.99 186.719C185.765 187.157 185.321 187.452 184.801 187.508L180.999 187.911L183.809 190.538C184.192 190.896 184.374 191.4 184.295 191.886L183.714 195.442L187.084 193.856C187.483 193.668 187.953 193.655 188.378 193.814C188.444 193.839 188.51 193.868 188.574 193.901L192.018 195.699L191.303 192.095C191.206 191.604 191.368 191.11 191.737 190.776Z" fill="#30AD43" fill-opacity="0.07"/>
<path d="M140.21 184.902C140.641 184.518 141.28 184.409 141.856 184.62L145.938 186.125L149.388 183.863C149.876 183.543 150.528 183.525 151.072 183.808C151.614 184.094 151.953 184.639 151.945 185.213L151.889 189.27L155.406 191.792C155.903 192.148 156.156 192.73 156.06 193.291C155.964 193.853 155.533 194.299 154.952 194.44L150.835 195.441L149.553 199.262C149.373 199.802 148.878 200.182 148.276 200.243C148.011 200.27 147.746 200.234 147.502 200.142C147.192 200.026 146.916 199.822 146.719 199.551L144.231 196.116L139.924 195.958C139.316 195.936 138.755 195.59 138.479 195.064C138.203 194.539 138.259 193.926 138.624 193.484L141.208 190.351L139.823 186.434C139.63 185.882 139.778 185.288 140.21 184.902ZM144.276 191.668L143.129 193.059L145.034 193.129C145.56 193.148 146.055 193.41 146.359 193.829L147.462 195.35L148.03 193.654C148.186 193.186 148.582 192.833 149.085 192.711L150.909 192.267L149.352 191.15C148.924 190.843 148.672 190.364 148.679 189.87L148.703 188.075L147.177 189.076C146.754 189.353 146.204 189.409 145.705 189.225L143.897 188.559L144.511 190.293C144.679 190.771 144.591 191.286 144.276 191.668Z" fill="#30AD43" fill-opacity="0.07"/>
<path d="M156.157 198.244C156.431 198.322 163.028 200.287 166.571 206.656C169.41 211.761 169.445 218.109 166.674 225.526C166.385 226.299 165.473 226.673 164.638 226.361C163.804 226.049 163.361 225.169 163.649 224.396C166.108 217.816 166.15 212.298 163.775 207.992C160.922 202.819 155.417 201.146 155.359 201.127C154.491 200.88 153.993 200.034 154.211 199.239C154.43 198.444 155.301 197.997 156.157 198.244Z" fill="#30AD43" fill-opacity="0.07"/>
</g>
<rect x="253.365" y="532.17" width="13.1216" height="1.11877" fill="white"/>
<rect width="13.1161" height="1.11924" transform="matrix(0.959666 0.281143 -0.283899 0.958854 258.932 492.641)" fill="white"/>
<rect width="13.1206" height="1.11886" transform="matrix(0.992152 0.125037 -0.126348 0.991986 254.256 518.724)" fill="white"/>
<rect width="13.1147" height="1.11936" transform="matrix(0.9492 0.314673 -0.31769 0.948195 262.719 479.961)" fill="white"/>
<rect width="13.1187" height="1.11902" transform="matrix(0.978475 0.206365 -0.208469 0.978029 256.223 504.947)" fill="white"/>
<rect width="13.1109" height="1.11969" transform="matrix(0.92001 0.391896 -0.395423 0.918499 267.773 466.957)" fill="white"/>
<rect width="13.1064" height="1.12008" transform="matrix(0.884383 0.466762 -0.47064 0.882326 274.33 454.181)" fill="white"/>
<rect width="13.1059" height="1.12012" transform="matrix(0.880239 0.474531 -0.478436 0.878122 280.168 444.161)" fill="white"/>
<rect width="13.0697" height="1.12323" transform="matrix(0.502124 0.864796 -0.867092 0.498148 360.062 369.126)" fill="white"/>
<rect width="13.0724" height="1.12299" transform="matrix(0.235999 0.970469 -0.973458 0.23423 395.758 354.908)" fill="white"/>
<rect width="13.0702" height="1.12318" transform="matrix(0.388851 0.920678 -0.9232 0.385804 370.713 363.926)" fill="white"/>
<rect width="13.0731" height="1.12293" transform="matrix(0.201428 0.978093 -0.98121 0.199939 408.689 351.828)" fill="white"/>
<rect width="13.0712" height="1.1231" transform="matrix(0.310844 0.949478 -0.952216 0.308453 383.689 358.729)" fill="white"/>
<rect width="13.075" height="1.12277" transform="matrix(0.11929 0.991181 -0.99463 0.118443 422.539 349.678)" fill="white"/>
<rect width="13.0773" height="1.12258" transform="matrix(0.0360506 0.997443 -1.00126 0.0358068 436.941 347.574)" fill="white"/>
<rect width="13.0775" height="1.12255" transform="matrix(0.0271933 0.997701 -1.00155 0.0270104 448.584 347.574)" fill="white"/>
<rect width="13.0699" height="1.12321" transform="matrix(-0.505543 0.862801 -0.865124 -0.501558 555.77 379.181)" fill="white"/>
<rect width="13.0726" height="1.12297" transform="matrix(-0.729848 0.685439 -0.687571 -0.724397 587.301 403.87)" fill="white"/>
<rect width="13.0704" height="1.12316" transform="matrix(-0.610531 0.79272 -0.794919 -0.605769 567 386.718)" fill="white"/>
<rect width="13.0733" height="1.12292" transform="matrix(-0.753661 0.65937 -0.66149 -0.748111 596.406 413.509)" fill="white"/>
<rect width="13.0714" height="1.12308" transform="matrix(-0.674382 0.739652 -0.74181 -0.669217 577.977 395.345)" fill="white"/>
<rect width="13.0752" height="1.12275" transform="matrix(-0.80585 0.594937 -0.597022 -0.800146 605.156 424.401)" fill="white"/>
<rect width="13.0774" height="1.12256" transform="matrix(-0.852629 0.526165 -0.528187 -0.846879 612.951 436.47)" fill="white"/>
<rect width="13.0777" height="1.12254" transform="matrix(-0.85725 0.518644 -0.520658 -0.851503 618.715 446.532)" fill="white"/>
<rect width="13.1035" height="1.12033" transform="matrix(0.860219 0.509925 -0.51393 0.857832 285.434 435.856)" fill="white"/>
<rect width="13.1009" height="1.12055" transform="matrix(0.680483 0.731041 -0.736486 0.678322 310.559 404.734)" fill="white"/>
<rect width="13.103" height="1.12037" transform="matrix(0.788995 0.613455 -0.618224 0.786743 293.119 424.759)" fill="white"/>
<rect width="13.1002" height="1.12061" transform="matrix(0.65417 0.7545 -0.760043 0.652026 320.338 395.77)" fill="white"/>
<rect width="13.1021" height="1.12045" transform="matrix(0.735263 0.676388 -0.681552 0.733064 301.898 413.926)" fill="white"/>
<rect width="13.0984" height="1.12077" transform="matrix(0.58919 0.805907 -0.811602 0.587096 331.371 387.173)" fill="white"/>
<rect width="13.0963" height="1.12095" transform="matrix(0.519897 0.851969 -0.85771 0.51788 342.43 378.526)" fill="white"/>
<rect width="13.096" height="1.12097" transform="matrix(0.512322 0.856519 -0.862258 0.510316 351.059 373.306)" fill="white"/>
<rect width="13.0523" height="1.12386" transform="matrix(-0.0137438 0.999906 -0.999908 -0.0135989 458.447 348.294)" fill="white"/>
<rect width="13.057" height="1.12346" transform="matrix(-0.29705 0.954903 -0.955713 -0.294167 498.631 354.244)" fill="white"/>
<rect width="13.0532" height="1.12378" transform="matrix(-0.13997 0.990174 -0.990342 -0.138517 471.951 349.365)" fill="white"/>
<rect width="13.0582" height="1.12335" transform="matrix(-0.330692 0.943785 -0.944787 -0.327552 510.682 357.638)" fill="white"/>
<rect width="13.0548" height="1.12364" transform="matrix(-0.221892 0.975102 -0.975548 -0.219652 485.773 351.509)" fill="white"/>
<rect width="13.0631" height="1.12379" transform="matrix(-0.408009 0.913036 -0.914538 -0.40437 523.654 362.573)" fill="white"/>
<rect width="13.0676" height="1.12341" transform="matrix(-0.482722 0.875842 -0.877886 -0.478745 535.838 368.25)" fill="white"/>
<rect width="13.0681" height="1.12336" transform="matrix(-0.49046 0.871534 -0.873635 -0.486458 546.432 373.852)" fill="white"/>
<rect width="13.1054" height="1.12016" transform="matrix(-0.875935 0.482428 -0.486359 -0.873759 623.277 455.239)" fill="white"/>
<rect width="13.1025" height="1.12042" transform="matrix(-0.97749 0.216665 -0.218332 -0.974623 637.658 492.503)" fill="white"/>
<rect width="13.1048" height="1.12021" transform="matrix(-0.929989 0.369104 -0.372078 -0.927596 629.045 467.432)" fill="white"/>
<rect width="13.1017" height="1.12048" transform="matrix(-0.98462 0.182243 -0.183625 -0.981621 640.52 505.42)" fill="white"/>
<rect width="13.1038" height="1.1203" transform="matrix(-0.957597 0.291251 -0.293553 -0.954986 634.035 480.432)" fill="white"/>
<rect width="13.0997" height="1.12065" transform="matrix(-0.996564 0.100525 -0.101256 -0.993222 642.43 519.232)" fill="white"/>
<rect width="13.0973" height="1.12086" transform="matrix(-1.0017 0.0177884 -0.0179112 -0.997974 644.371 533.089)" fill="white"/>
<rect width="13.0971" height="1.12088" transform="matrix(-1.00184 0.00898838 -0.00905004 -0.998072 644.453 544.797)" fill="white"/>
<defs>
<clipPath id="clip0_446_465">
<rect width="122" height="122" fill="white" transform="translate(89.1328 302.807)"/>
</clipPath>
<clipPath id="clip1_446_465">
<rect width="122" height="122" fill="white" transform="translate(679.133 512.806)"/>
</clipPath>
<clipPath id="clip2_446_465">
<rect width="127" height="127" fill="white" transform="translate(459.133 92.8069)"/>
</clipPath>
<clipPath id="clip3_446_465">
<rect width="102" height="97" fill="white" transform="translate(667.727 206.074) rotate(-26.8531)"/>
</clipPath>
<clipPath id="clip4_446_465">
<rect width="102" height="97" fill="white" transform="translate(237.727 46.0739) rotate(-26.8531)"/>
</clipPath>
<clipPath id="clip5_446_465">
<rect width="102" height="97" fill="white" transform="translate(238.84 544.525) rotate(75.055)"/>
</clipPath>
<clipPath id="clip6_446_465">
<rect width="102" height="97" fill="white" transform="translate(1067.84 496.624) rotate(14.4371)"/>
</clipPath>
<clipPath id="clip7_446_465">
<rect width="102" height="97" fill="white" transform="translate(358.119 171.32) rotate(23.867)"/>
</clipPath>
<clipPath id="clip8_446_465">
<rect width="100.353" height="100.352" fill="white" transform="translate(505.133 230.807)"/>
</clipPath>
<clipPath id="clip9_446_465">
<rect width="108" height="100" fill="white" transform="matrix(-0.93675 -0.349999 -0.349999 0.93675 659.219 572.869)"/>
</clipPath>
<clipPath id="clip10_446_465">
<rect width="108" height="100" fill="white" transform="matrix(-0.93675 -0.349999 -0.349999 0.93675 253.303 186.932)"/>
</clipPath>
</defs>
</svg>
