<svg width="1094" height="661" viewBox="0 0 1094 661" fill="none" xmlns="http://www.w3.org/2000/svg">
<path d="M0 15C0 6.71575 6.71573 0 15 0H1079C1087.28 0 1094 6.71573 1094 15V646C1094 654.284 1087.28 661 1079 661H15C6.71573 661 0 654.284 0 646V15Z" fill="#84BD32" fill-opacity="0.05"/>
<path d="M191.492 172.225C166.802 169.748 144.702 187.817 142.225 212.508C139.747 237.198 157.817 259.298 182.508 261.775C207.198 264.252 229.298 246.183 231.775 221.492C234.252 196.802 216.183 174.702 191.492 172.225ZM190.743 179.687C211.396 181.759 226.385 200.09 224.312 220.743C222.24 241.397 203.909 256.385 183.256 254.313C162.603 252.241 147.615 233.91 149.687 213.256C151.759 192.603 170.09 177.615 190.743 179.687ZM172.081 196.659C168.991 196.349 166.064 200.281 165.548 205.426C165.032 210.571 167.119 215.005 170.209 215.315C173.299 215.625 176.226 211.694 176.742 206.549C177.258 201.404 175.171 196.969 172.081 196.659ZM205.662 200.028C202.572 199.718 199.646 203.65 199.129 208.795C198.613 213.94 200.701 218.375 203.791 218.685C206.88 218.995 209.807 215.063 210.323 209.918C210.839 204.773 208.752 200.338 205.662 200.028ZM186.625 220.731C178.07 219.873 171.006 226.157 170.203 234.159C169.833 237.846 170.791 241.652 173.593 243.803C176.395 245.954 179.691 246.417 184.005 246.85C188.319 247.283 191.641 247.484 194.815 245.932C197.988 244.381 199.683 240.841 200.053 237.154C200.856 229.152 195.181 221.59 186.625 220.731ZM185.877 228.194C190.701 228.678 193.029 232.032 192.591 236.405C192.341 238.897 192.186 238.97 191.599 239.25C191.011 239.53 188.689 239.782 184.754 239.388C180.818 238.993 178.593 238.284 178.073 237.893C177.552 237.502 177.415 237.4 177.666 234.908C178.104 230.535 181.052 227.71 185.877 228.194Z" fill="#84BD32" fill-opacity="0.1"/>
<path d="M512.14 235.123C511.378 236.309 510.28 237.242 508.987 237.804C507.693 238.367 506.262 238.533 504.875 238.281C503.487 238.03 502.205 237.373 501.191 236.393C500.176 235.413 499.476 234.155 499.177 232.776C498.878 231.398 498.995 229.962 499.512 228.65C500.03 227.338 500.925 226.209 502.084 225.406C503.243 224.603 504.615 224.162 506.025 224.138C507.435 224.114 508.82 224.509 510.006 225.273C511.594 226.297 512.712 227.909 513.112 229.756C513.512 231.603 513.163 233.533 512.14 235.123ZM514.114 218.896C512.881 218.102 512.014 216.851 511.704 215.417C511.394 213.984 511.666 212.486 512.46 211.253L540.215 168.173C541.01 166.94 542.261 166.073 543.694 165.763C545.128 165.453 546.626 165.725 547.858 166.519C549.091 167.314 549.958 168.565 550.268 169.999C550.578 171.432 550.306 172.93 549.512 174.163L521.751 217.252C520.956 218.483 519.705 219.348 518.272 219.658C516.84 219.967 515.346 219.69 514.114 218.896Z" fill="#84BD32" fill-opacity="0.15"/>
<g clip-path="url(#clip0_446_902)">
<path d="M322.573 450.165C304.205 462.09 298.987 486.677 310.912 505.045C321.693 521.65 342.817 527.506 360.345 519.68C356.656 524.714 355.614 526.518 355.501 527.55C355.303 529.399 356.358 530.169 356.786 530.399C358.964 531.578 361.563 529.541 368.77 523.44C370.926 521.629 374.092 518.925 376.299 517.382C375.078 519.882 372.778 523.637 371.249 526.162C369.693 528.728 368.245 531.133 367.229 533.072C366.32 534.85 364.762 537.764 366.886 539.197C370.666 541.806 375.35 536.161 380.317 530.182C381.951 528.193 383.786 525.991 384.593 525.486C384.782 525.38 384.903 525.286 385.064 525.22C384.973 527.083 383.405 531.915 378.403 539.328L381.769 541.6C384.229 537.953 391.899 525.808 388.033 521.858C387.286 521.063 385.455 520.061 382.373 522.122C381.135 522.919 379.61 524.748 377.18 527.657C375.709 529.405 373.199 532.435 371.218 534.247C372.193 532.456 373.6 530.198 374.736 528.341C380.365 519.134 382.938 514.63 379.972 512.629C377.568 511.007 374.431 513.322 366.119 520.369C365.19 521.141 364.085 522.087 363.035 522.953C365.116 520.041 367.749 516.57 369.694 514.033C369.802 513.873 369.884 513.753 370.032 513.62C384.931 500.871 388.433 478.741 377.466 461.894C365.555 443.419 340.968 438.201 322.573 450.165ZM322.411 481.78C325.695 479.505 329.801 478.952 333.347 480.178L331.998 483.992C329.643 483.161 326.906 483.588 324.698 485.131C322.612 486.581 321.38 488.666 321.287 490.877L317.253 490.721C317.339 487.222 319.248 483.961 322.411 481.78ZM359.769 507.395C350.094 513.696 337.117 511.063 330.694 501.481L366.219 478.39C372.292 488.144 369.471 501.054 359.769 507.395ZM360.135 465.713C357.78 464.882 355.043 465.309 352.835 466.852C350.749 468.302 349.517 470.387 349.424 472.598L345.39 472.442C345.503 468.903 347.412 465.642 350.548 463.501C353.832 461.226 357.938 460.673 361.484 461.899L360.135 465.713ZM380.88 438.597L372.537 448.888L368.573 445.688L376.916 435.398L380.88 438.597ZM317.873 446.586L313.9 449.795L303.314 436.704L307.287 433.495L317.873 446.586ZM359.406 440.087L354.494 438.638L361.164 415.788L366.076 417.237L359.406 440.087ZM302.042 470.136L292.417 467.374L293.799 462.475L303.424 465.236L302.042 470.136ZM302.612 497.812L285.364 503.67L283.755 498.968L301.003 493.111L302.612 497.812Z" fill="#84BD32" fill-opacity="0.1"/>
</g>
<defs>
<clipPath id="clip0_446_902">
<rect width="125.687" height="125.687" fill="white" transform="translate(263.361 494.189) rotate(-55.9913)"/>
</clipPath>
</defs>
</svg>
