<svg width="15" height="15" viewBox="0 0 15 15" fill="none" xmlns="http://www.w3.org/2000/svg">
<path d="M10.7812 4.21875L10.125 2.85937C9.98438 2.53125 9.65625 2.34375 9.28125 2.34375H5.76563C5.39063 2.34375 5.0625 2.53125 4.92188 2.85937L4.21875 4.21875H2.34375C1.82812 4.21875 1.40625 4.64062 1.40625 5.15625V11.7188C1.40625 12.2344 1.82812 12.6562 2.34375 12.6562H12.6562C13.1719 12.6562 13.5938 12.2344 13.5938 11.7188V5.15625C13.5938 4.64062 13.1719 4.21875 12.6562 4.21875H10.7812Z" stroke="#5F6368" stroke-width="0.9375" stroke-miterlimit="10" stroke-linejoin="round"/>
<path d="M7.5 10.7812C9.0533 10.7812 10.3125 9.52205 10.3125 7.96875C10.3125 6.41545 9.0533 5.15625 7.5 5.15625C5.9467 5.15625 4.6875 6.41545 4.6875 7.96875C4.6875 9.52205 5.9467 10.7812 7.5 10.7812Z" stroke="#5F6368" stroke-width="0.9375" stroke-miterlimit="10" stroke-linejoin="round"/>
<path d="M2.34375 5.625H3.75" stroke="#5F6368" stroke-width="0.9375" stroke-miterlimit="10" stroke-linejoin="round"/>
</svg>
