<svg width="20" height="20" viewBox="0 0 20 20" fill="none" xmlns="http://www.w3.org/2000/svg">
<path d="M12.8941 13.7727L13.7724 12.8943L10.6249 9.74683V5.8335H9.37492V10.2533L12.8941 13.7727ZM10.0014 17.9168C8.90638 17.9168 7.87714 17.7091 6.91367 17.2935C5.9502 16.8779 5.11214 16.314 4.3995 15.6016C3.68686 14.8893 3.12263 14.0516 2.70679 13.0885C2.2911 12.1254 2.08325 11.0965 2.08325 10.0016C2.08325 8.90662 2.29103 7.87739 2.70659 6.91391C3.12214 5.95044 3.6861 5.11239 4.39846 4.39975C5.11082 3.68711 5.94853 3.12287 6.91159 2.70704C7.87464 2.29134 8.9036 2.0835 9.99846 2.0835C11.0935 2.0835 12.1227 2.29127 13.0862 2.70683C14.0496 3.12238 14.8877 3.68634 15.6003 4.3987C16.313 5.11107 16.8772 5.94877 17.293 6.91183C17.7087 7.87489 17.9166 8.90384 17.9166 9.99871C17.9166 11.0937 17.7088 12.1229 17.2933 13.0864C16.8777 14.0499 16.3137 14.8879 15.6014 15.6006C14.889 16.3132 14.0513 16.8775 13.0883 17.2933C12.1252 17.709 11.0962 17.9168 10.0014 17.9168ZM9.99992 16.6668C11.8471 16.6668 13.4201 16.0175 14.7187 14.7189C16.0173 13.4203 16.6666 11.8474 16.6666 10.0002C16.6666 8.15294 16.0173 6.58002 14.7187 5.28141C13.4201 3.9828 11.8471 3.3335 9.99992 3.3335C8.1527 3.3335 6.57978 3.9828 5.28117 5.28141C3.98256 6.58002 3.33325 8.15294 3.33325 10.0002C3.33325 11.8474 3.98256 13.4203 5.28117 14.7189C6.57978 16.0175 8.1527 16.6668 9.99992 16.6668Z" fill="#5F6368"/>
</svg>
