<svg width="20" height="20" viewBox="0 0 20 20" fill="none" xmlns="http://www.w3.org/2000/svg">
<path d="M2.17969 8.26141C2.17969 7.0328 2.44059 5.8987 2.9624 4.85912C3.48434 3.81968 4.18872 2.94204 5.07552 2.2262L5.84615 3.19891C5.10365 3.79933 4.51524 4.53544 4.08094 5.40725C3.64677 6.27905 3.42969 7.23044 3.42969 8.26141H2.17969ZM16.5705 8.26141C16.5705 7.23044 16.3534 6.27773 15.9193 5.40329C15.485 4.52884 14.8966 3.79134 14.1541 3.19079L14.9247 2.2262C15.8115 2.94204 16.5159 3.81968 17.0378 4.85912C17.5596 5.8987 17.8205 7.0328 17.8205 8.26141H16.5705ZM3.7501 15.7372V14.4875H5.25656V8.26933C5.25656 7.14864 5.60247 6.15773 6.29427 5.29662C6.98594 4.43551 7.87399 3.88475 8.95844 3.64433V3.12516C8.95844 2.83669 9.05997 2.591 9.26302 2.38808C9.46594 2.18502 9.71163 2.0835 10.0001 2.0835C10.2886 2.0835 10.5343 2.18502 10.7372 2.38808C10.9402 2.591 11.0418 2.83669 11.0418 3.12516V3.64433C12.1262 3.88475 13.0143 4.43551 13.7059 5.29662C14.3977 6.15773 14.7436 7.14864 14.7436 8.26933V14.4875H16.2501V15.7372H3.7501ZM10.0001 18.077C9.58455 18.077 9.22962 17.9299 8.93531 17.6356C8.64087 17.3413 8.49365 16.9863 8.49365 16.5706H11.5066C11.5066 16.9863 11.3593 17.3413 11.0649 17.6356C10.7706 17.9299 10.4157 18.077 10.0001 18.077ZM6.50656 14.4875H13.4936V8.26933C13.4936 7.30461 13.1526 6.4812 12.4705 5.79912C11.7883 5.1169 10.9648 4.77579 10.0001 4.77579C9.03538 4.77579 8.21191 5.1169 7.52969 5.79912C6.84761 6.4812 6.50656 7.30461 6.50656 8.26933V14.4875Z" fill="#5F6368"/>
</svg>
