<svg width="14" height="17" viewBox="0 0 14 17" fill="none" xmlns="http://www.w3.org/2000/svg">
<path d="M2.25646 16.9165C1.8409 16.9165 1.4859 16.7694 1.19146 16.475C0.897153 16.1806 0.75 15.8256 0.75 15.41V7.58963C0.75 7.17407 0.897153 6.81907 1.19146 6.52463C1.4859 6.23032 1.8409 6.08317 2.25646 6.08317H3.25V4.4165C3.25 3.37595 3.61486 2.49081 4.34458 1.76109C5.07431 1.03136 5.95944 0.666504 7 0.666504C8.04056 0.666504 8.9257 1.03136 9.65542 1.76109C10.3851 2.49081 10.75 3.37595 10.75 4.4165V6.08317H11.7435C12.1591 6.08317 12.5141 6.23032 12.8085 6.52463C13.1028 6.81907 13.25 7.17407 13.25 7.58963V15.41C13.25 15.8256 13.1028 16.1806 12.8085 16.475C12.5141 16.7694 12.1591 16.9165 11.7435 16.9165H2.25646ZM2.25646 15.6665H11.7435C11.8184 15.6665 11.8799 15.6425 11.9279 15.5944C11.976 15.5464 12 15.4849 12 15.41V7.58963C12 7.51477 11.976 7.45331 11.9279 7.40525C11.8799 7.3572 11.8184 7.33317 11.7435 7.33317H2.25646C2.1816 7.33317 2.12014 7.3572 2.07208 7.40525C2.02403 7.45331 2 7.51477 2 7.58963V15.41C2 15.4849 2.02403 15.5464 2.07208 15.5944C2.12014 15.6425 2.1816 15.6665 2.25646 15.6665ZM7 12.9582C7.40486 12.9582 7.74917 12.8164 8.03292 12.5328C8.31653 12.249 8.45833 11.9047 8.45833 11.4998C8.45833 11.095 8.31653 10.7507 8.03292 10.4669C7.74917 10.1833 7.40486 10.0415 7 10.0415C6.59514 10.0415 6.25083 10.1833 5.96708 10.4669C5.68347 10.7507 5.54167 11.095 5.54167 11.4998C5.54167 11.9047 5.68347 12.249 5.96708 12.5328C6.25083 12.8164 6.59514 12.9582 7 12.9582ZM4.5 6.08317H9.5V4.4165C9.5 3.72206 9.25694 3.13178 8.77083 2.64567C8.28472 2.15956 7.69444 1.9165 7 1.9165C6.30556 1.9165 5.71528 2.15956 5.22917 2.64567C4.74306 3.13178 4.5 3.72206 4.5 4.4165V6.08317Z" fill="#5F6368"/>
</svg>
