<svg width="24" height="25" viewBox="0 0 24 25" fill="none" xmlns="http://www.w3.org/2000/svg">
<path d="M12 0C5.3728 0 0 5.43731 0 12.1441C0 18.8508 5.3728 24.2882 12 24.2882C18.6272 24.2882 24 18.8508 24 12.1441C24 5.43731 18.6272 0 12 0ZM12 23.2761C5.9344 23.2761 1 18.2825 1 12.1441C1 6.00565 5.9344 1.01201 12 1.01201C18.0652 1.01201 23 6.00565 23 12.1441C23 18.2825 18.0652 23.2761 12 23.2761Z" fill="#84BD32"/>
<path d="M7.3999 11.9788C8.50447 11.9788 9.3999 11.0727 9.3999 9.95483C9.3999 8.837 8.50447 7.93082 7.3999 7.93082C6.29533 7.93082 5.3999 8.837 5.3999 9.95483C5.3999 11.0727 6.29533 11.9788 7.3999 11.9788Z" fill="#84BD32"/>
<path d="M16.6001 11.9788C17.7047 11.9788 18.6001 11.0727 18.6001 9.95483C18.6001 8.837 17.7047 7.93082 16.6001 7.93082C15.4955 7.93082 14.6001 8.837 14.6001 9.95483C14.6001 11.0727 15.4955 11.9788 16.6001 11.9788Z" fill="#84BD32"/>
<rect x="8" y="16" width="8" height="2" rx="1" fill="#84BD32"/>
</svg>
